<?xml version="1.0" standalone="no"?>
<!DOCTYPE svg PUBLIC "-//W3C//DTD SVG 20010904//EN"
 "http://www.w3.org/TR/2001/REC-SVG-20010904/DTD/svg10.dtd">
<svg version="1.0" xmlns="http://www.w3.org/2000/svg"
 width="1181.000000pt" height="1181.000000pt" viewBox="0 0 1181.000000 1181.000000"
 preserveAspectRatio="xMidYMid meet">

<g transform="translate(0.000000,1181.000000) scale(0.100000,-0.100000)"
fill="#000000" stroke="none">
<path d="M6005 7759 c-319 -23 -613 -162 -851 -404 -191 -193 -321 -444 -369
-710 -28 -150 -17 -445 21 -567 5 -17 -8 -18 -175 -18 l-180 0 -36 -31 c-92
-81 -97 -197 -12 -282 l41 -41 138 -556 137 -555 1 -467 0 -466 -63 -64 c-73
-72 -99 -132 -100 -226 0 -83 26 -153 83 -215 72 -79 125 -102 235 -102 78 0
97 4 140 27 60 32 114 87 146 148 20 38 24 60 24 140 0 87 -3 100 -30 149 -16
30 -51 73 -77 95 l-48 41 0 133 0 132 1095 0 1095 0 0 -134 0 -134 -34 -21
c-39 -24 -73 -66 -107 -131 -34 -66 -34 -194 1 -265 118 -239 444 -247 570
-14 32 58 35 72 35 145 0 73 -4 88 -35 150 -24 47 -48 78 -77 99 l-42 30 0
485 -1 485 139 560 c148 595 138 560 367 1167 l25 67 212 3 c200 3 214 4 252
26 122 70 126 239 7 310 l-47 27 -315 3 c-174 2 -326 -1 -339 -6 -22 -8 -39
-51 -146 -358 l-122 -349 -63 -3 -62 -3 6 33 c40 224 43 370 10 558 -70 405
-345 775 -715 965 -233 120 -459 164 -734 144z m318 -84 c493 -74 911 -458
1038 -952 31 -124 42 -239 36 -383 -5 -111 -27 -264 -41 -277 -1 -2 -274 -2
-606 -1 l-603 3 386 419 c213 230 387 427 387 436 0 25 -216 225 -243 225 -15
0 -135 -123 -418 -430 -218 -236 -401 -430 -408 -430 -6 0 -55 72 -109 160
-55 88 -105 161 -113 163 -18 3 -269 -151 -282 -173 -6 -12 18 -59 92 -180 56
-90 104 -171 107 -179 5 -14 -30 -16 -324 -16 -182 0 -333 4 -336 8 -2 4 -13
46 -22 92 -26 120 -26 383 0 500 56 258 169 466 355 651 156 155 316 255 515
320 173 57 393 74 589 44z m1787 -1080 l0 -105 -36 0 c-19 0 -43 -4 -53 -9
-11 -7 -63 -132 -146 -355 l-129 -346 -1637 0 -1637 0 -26 31 c-38 45 -37 110
3 150 l29 29 1566 0 1565 0 14 28 c8 15 65 174 127 355 l113 327 123 0 124 0
0 -105z m-3200 -1045 l0 -151 -157 3 -157 3 -37 148 -37 147 194 0 194 0 0
-150z m470 0 l0 -150 -200 0 -200 0 0 150 0 150 200 0 200 0 0 -150z m470 0
l0 -150 -200 0 -200 0 0 150 0 150 200 0 200 0 0 -150z m470 0 l0 -150 -200 0
-200 0 0 150 0 150 200 0 200 0 0 -150z m470 0 l0 -150 -195 0 -195 0 0 150 0
150 195 0 195 0 0 -150z m470 0 l0 -150 -195 0 -195 0 0 150 0 150 195 0 195
0 0 -150z m460 145 c0 -3 -16 -71 -36 -150 l-36 -145 -154 0 -154 0 0 150 0
150 190 0 c105 0 190 -2 190 -5z m-2810 -525 l0 -150 -110 0 -109 0 -10 38
c-12 45 -61 252 -61 258 0 2 65 4 145 4 l145 0 0 -150z m470 0 l0 -150 -200 0
-200 0 0 150 0 150 200 0 200 0 0 -150z m470 0 l0 -150 -200 0 -200 0 0 150 0
150 200 0 200 0 0 -150z m470 0 l0 -150 -200 0 -200 0 0 150 0 150 200 0 200
0 0 -150z m470 0 l0 -150 -195 0 -195 0 0 150 0 150 195 0 195 0 0 -150z m470
0 l0 -150 -195 0 -195 0 0 150 0 150 195 0 195 0 0 -150z m331 3 l-37 -148
-107 -3 -107 -3 0 151 0 150 144 0 144 0 -37 -147z m-2681 -383 l0 -150 -63 0
-63 0 -33 138 c-19 75 -36 143 -39 150 -3 9 20 12 97 12 l101 0 0 -150z m470
0 l0 -150 -200 0 -200 0 0 150 0 150 200 0 200 0 0 -150z m470 0 l0 -150 -200
0 -200 0 0 150 0 150 200 0 200 0 0 -150z m470 0 l0 -150 -200 0 -200 0 0 150
0 150 200 0 200 0 0 -150z m470 0 l0 -150 -195 0 -195 0 0 150 0 150 195 0
195 0 0 -150z m470 0 l0 -150 -195 0 -195 0 0 150 0 150 195 0 195 0 0 -150z
m270 146 c0 -6 -49 -213 -61 -258 l-10 -38 -59 0 -60 0 0 150 0 150 95 0 c52
0 95 -2 95 -4z m-2580 -560 c0 -154 3 -187 16 -200 14 -14 133 -16 1158 -16
875 0 1145 3 1154 12 8 8 12 67 12 200 l0 188 80 0 80 0 0 -437 0 -438 -80 0
-80 0 0 145 c0 100 -4 150 -12 158 -9 9 -280 12 -1160 12 -1124 0 -1148 0
-1158 -19 -5 -11 -10 -82 -10 -158 l0 -138 -77 2 -78 1 -3 436 -2 436 80 0 80
0 0 -184z m2270 24 l0 -160 -1095 0 -1095 0 0 160 0 160 1095 0 1095 0 0 -160z
m-2287 -982 c39 -46 3 -118 -60 -118 -59 0 -91 57 -62 111 22 42 89 46 122 7z
m2483 9 c55 -47 26 -127 -46 -127 -71 0 -100 80 -46 127 34 29 58 29 92 0z"/>
</g>
</svg>
