<?xml version="1.0" standalone="no"?>
<!DOCTYPE svg PUBLIC "-//W3C//DTD SVG 20010904//EN"
 "http://www.w3.org/TR/2001/REC-SVG-20010904/DTD/svg10.dtd">
<svg version="1.0" xmlns="http://www.w3.org/2000/svg"
 width="1181.000000pt" height="1181.000000pt" viewBox="0 0 1181.000000 1181.000000"
 preserveAspectRatio="xMidYMid meet">

<g transform="translate(0.000000,1181.000000) scale(0.100000,-0.100000)"
fill="#000000" stroke="none">
<path d="M5785 8043 c-11 -3 -29 -12 -39 -22 -18 -15 -19 -15 -13 2 8 21 -11
22 -57 3 -52 -22 -52 -34 2 -30 26 1 36 1 22 -2 -14 -3 -32 -8 -40 -11 -8 -3
-21 -7 -29 -7 -28 -2 -21 -23 10 -30 20 -4 38 -1 52 9 12 8 34 15 50 15 15 0
30 6 32 13 3 7 22 13 43 14 58 3 187 29 177 35 -14 8 -186 17 -210 11z"/>
<path d="M5946 8002 c-22 -2 -45 -10 -50 -17 -6 -8 -33 -16 -61 -17 -47 -3
-48 -4 -25 -15 l25 -12 -27 0 c-45 -1 -32 -18 17 -23 25 -3 52 -11 60 -18 18
-15 20 -91 3 -109 -11 -11 -9 -13 10 -8 12 3 22 1 22 -3 0 -5 3 -17 6 -27 6
-15 4 -16 -7 -5 -18 17 -34 15 -20 -2 10 -12 8 -13 -8 -9 -13 3 -21 1 -21 -7
0 -9 10 -10 35 -6 l35 7 -18 -30 c-10 -18 -21 -26 -26 -21 -16 16 -42 -7 -44
-38 -1 -18 5 -37 15 -47 12 -13 13 -19 4 -25 -9 -5 -10 -13 -3 -26 6 -11 16
-33 23 -50 10 -24 17 -30 32 -26 12 3 26 -3 36 -16 22 -28 59 -13 67 28 4 16
13 30 21 30 8 0 19 13 24 29 10 28 59 57 73 44 9 -10 51 6 76 29 17 16 38 23
65 24 52 1 95 12 95 24 0 6 -13 10 -28 10 -18 0 -29 5 -29 15 0 22 28 27 48 9
10 -9 24 -14 31 -12 8 3 0 17 -24 38 -46 41 -48 54 -7 45 22 -5 29 -4 25 4 -4
6 -3 11 2 11 19 0 -1 48 -21 55 -22 6 -22 6 -2 14 19 8 19 8 -3 15 -20 7 -22
12 -16 39 3 18 11 35 17 39 17 11 -19 21 -48 14 -14 -4 -25 -2 -25 4 0 5 -15
10 -34 10 -19 0 -38 5 -42 12 -5 8 2 9 27 5 33 -6 34 -6 9 8 -24 13 -201 17
-314 7z"/>
<path d="M5525 7970 c-4 -6 -3 -10 1 -10 3 0 -4 -8 -17 -18 l-22 -19 57 -7
c33 -3 64 -2 74 4 14 8 13 9 -8 10 -46 1 -71 11 -60 25 8 9 6 14 -4 18 -9 4
-18 2 -21 -3z"/>
<path d="M8080 7873 c-208 -185 -438 -312 -685 -380 l-101 -27 75 -111 c195
-288 293 -611 293 -970 1 -443 -153 -833 -459 -1166 l-88 -96 -74 -17 c-161
-36 -318 -49 -666 -51 -332 -3 -458 -11 -660 -41 -197 -29 -410 -75 -519 -113
l-59 -21 -56 32 c-98 57 -243 173 -341 274 -148 153 -220 253 -309 432 -121
241 -168 429 -179 720 l-7 174 -85 -63 c-124 -91 -306 -277 -375 -383 -107
-164 -153 -305 -162 -492 -6 -139 6 -227 44 -323 128 -319 391 -470 805 -459
82 2 148 1 147 -2 0 -3 -35 -31 -77 -62 -185 -136 -368 -323 -468 -478 -86
-134 -163 -319 -179 -432 -7 -45 -6 -47 19 -54 57 -14 188 28 229 73 9 11 26
51 37 89 82 295 249 554 462 714 l79 60 62 -52 c183 -153 385 -250 625 -300
188 -40 610 -27 882 28 500 100 859 271 1140 541 263 252 401 491 554 960 160
491 232 1055 207 1613 -9 187 -26 410 -34 442 -1 4 -36 -22 -77 -59z"/>
<path d="M5407 7904 c-16 -9 -27 -17 -25 -19 7 -7 78 18 78 27 0 12 -22 9 -53
-8z"/>
<path d="M5443 7879 c-24 -12 -40 -25 -37 -30 3 -5 -2 -9 -10 -9 -9 0 -16 -4
-16 -9 0 -9 76 -31 109 -31 12 0 21 -2 21 -4 0 -2 7 -19 15 -38 l14 -35 -40
-27 c-27 -17 -54 -26 -80 -26 -21 0 -39 -4 -39 -10 0 -5 18 -10 39 -10 35 0
40 -3 46 -28 3 -16 18 -35 34 -45 40 -23 55 -22 41 3 -13 24 -7 25 23 6 17
-11 24 -12 32 -2 17 20 17 38 -1 51 -10 7 -15 19 -11 29 9 24 26 20 37 -9 5
-14 12 -25 15 -25 5 0 41 21 64 36 2 2 -14 19 -35 39 -35 32 -37 37 -21 46 9
5 17 14 17 18 0 11 -36 51 -46 51 -15 0 -33 48 -20 54 6 2 1 5 -11 5 -14 1
-23 -5 -23 -14 0 -8 -5 -15 -11 -15 -6 0 -8 9 -4 21 7 20 5 21 -21 15 -16 -4
-36 -14 -45 -22 -18 -16 -29 -18 -29 -5 0 5 15 16 33 25 17 8 25 16 17 16 -8
0 -34 -9 -57 -21z"/>
<path d="M5327 7859 c-21 -11 -42 -31 -47 -45 -5 -13 -21 -29 -35 -34 -33 -13
-38 -13 -29 1 4 8 0 9 -15 4 -25 -8 -64 3 -56 16 10 15 -17 10 -37 -8 -12 -10
-18 -12 -18 -4 0 7 -4 9 -10 6 -5 -3 -10 -1 -10 4 0 6 5 11 12 11 6 0 9 3 6 6
-7 6 -94 -49 -168 -107 -198 -155 -332 -312 -451 -526 -61 -111 -90 -204 -93
-300 -1 -46 1 -77 5 -71 12 18 16 -4 23 -105 4 -49 11 -97 16 -107 6 -10 10
-46 10 -80 0 -60 1 -62 51 -116 39 -40 59 -54 80 -54 20 0 33 -9 49 -35 12
-20 35 -39 56 -47 27 -10 40 -24 60 -65 13 -29 29 -53 34 -53 5 0 12 -9 15
-20 3 -11 12 -20 19 -20 8 0 19 -7 26 -15 7 -8 17 -15 23 -15 6 0 7 3 4 7 -8
7 11 33 24 33 13 0 30 -45 39 -100 7 -40 5 -49 -20 -80 -36 -45 -48 -98 -25
-106 15 -6 15 -8 0 -25 -20 -21 -20 -19 72 -160 69 -106 81 -120 146 -169 34
-26 48 -45 55 -75 25 -103 32 -137 32 -160 0 -13 9 -47 20 -75 11 -28 20 -63
20 -78 0 -15 7 -35 14 -45 13 -17 18 -17 109 5 53 12 93 26 91 30 -3 4 8 5 25
2 26 -6 35 0 75 42 31 33 46 57 46 75 0 35 36 58 100 66 71 8 102 48 125 161
4 17 11 32 17 32 6 0 21 10 33 23 13 12 32 29 44 37 13 9 24 30 28 52 5 33 3
39 -18 47 -13 5 -41 22 -62 39 -25 20 -54 32 -87 37 -33 5 -50 12 -50 21 0 21
-71 48 -92 35 -24 -15 -35 -14 -20 1 7 7 12 16 12 20 0 12 -38 10 -45 -2 -3
-5 -16 -10 -28 -10 -20 1 -19 4 13 30 27 23 31 33 22 42 -7 7 -12 22 -12 34 0
31 -63 80 -109 87 -39 5 -81 33 -81 53 0 7 -13 18 -29 25 -16 7 -27 18 -25 24
6 14 -55 45 -86 45 -44 -2 -84 12 -110 37 -13 14 -26 20 -28 14 -2 -6 -10 -11
-19 -11 -10 0 -12 -6 -8 -20 5 -14 2 -20 -10 -20 -12 0 -15 6 -10 23 4 12 9
30 11 40 6 18 -11 24 -21 7 -3 -5 -15 -10 -26 -10 -10 0 -31 -13 -46 -30 -30
-34 -45 -37 -64 -14 -9 11 -22 14 -44 10 -27 -5 -34 -2 -54 25 -21 28 -22 36
-13 85 8 50 7 56 -12 69 -11 8 -35 15 -53 15 -31 0 -32 1 -27 33 5 30 17 62
35 98 10 21 2 29 -31 29 -21 0 -28 -7 -35 -32 -9 -29 -15 -33 -48 -36 -33 -3
-38 0 -48 25 -21 52 -22 104 -5 177 15 60 23 78 49 96 30 23 31 23 75 7 36
-14 43 -14 39 -3 -3 8 3 16 15 19 24 7 68 -8 68 -22 0 -6 6 -8 14 -5 17 7 38
-28 30 -50 -8 -21 15 -88 29 -83 8 2 12 31 12 78 1 41 2 79 3 85 2 12 106 84
121 84 20 0 39 42 34 75 -3 19 0 35 6 39 7 5 11 -2 11 -16 1 -20 2 -21 11 -5
25 42 64 70 105 75 37 4 43 8 46 30 3 29 47 48 131 57 45 4 48 4 25 -6 -16 -6
-28 -17 -28 -25 0 -16 12 -18 26 -4 6 6 38 15 72 21 41 7 62 16 62 25 0 16
-26 19 -35 4 -9 -14 -48 -13 -63 2 -7 7 -12 22 -12 35 0 13 -6 23 -12 24 -7 1
-3 4 10 7 13 4 24 12 25 17 4 19 -62 16 -109 -5 -70 -30 -63 -18 10 20 62 31
68 33 133 26 91 -10 93 -10 130 5 50 20 52 2 5 -42 -50 -47 -52 -59 -13 -59
40 0 62 -10 54 -24 -3 -6 -1 -6 8 2 18 16 29 15 29 -3 0 -8 4 -15 9 -15 14 0
23 18 12 24 -5 4 -7 18 -5 32 4 22 2 26 -14 22 -12 -3 -26 2 -35 13 -14 15
-14 19 -1 29 7 7 11 16 8 21 -3 5 -1 9 4 9 6 0 13 12 16 27 8 31 -5 42 -49 43
l-30 1 25 10 25 10 -23 13 c-28 15 -55 53 -43 60 7 5 -6 92 -16 105 -2 3 -13
-5 -26 -16 -32 -30 -63 -37 -71 -18 -3 9 -10 13 -16 10 -16 -10 -12 5 11 36
17 24 18 29 4 29 -8 0 -21 11 -27 25 -7 15 -20 25 -32 25 -12 0 -30 3 -41 6
-15 4 -23 -3 -34 -27 -8 -18 -23 -41 -33 -51 -12 -12 -18 -28 -15 -39 7 -25
-34 -75 -68 -83 -18 -5 -27 -16 -35 -44 -11 -44 -54 -73 -64 -46 -10 26 -7 54
10 79 15 23 15 24 -10 31 -14 3 -37 21 -51 40 -14 19 -33 34 -41 34 -11 0 -12
4 -4 19 5 11 7 26 4 34 -8 21 82 90 143 112 64 22 113 47 131 65 11 10 17 11
19 3 6 -18 61 2 94 34 51 50 30 58 -45 18 -45 -24 -58 -22 -33 4 10 11 9 13
-6 8 -16 -6 -15 -2 5 24 41 55 51 69 47 69 -2 -1 -21 -10 -42 -21z m-472 -483
c-4 -19 -13 -40 -21 -46 -11 -10 -12 -5 -7 27 6 37 21 68 30 59 2 -2 1 -20 -2
-40z m109 -148 c3 -13 6 -29 6 -35 0 -18 -49 -16 -56 1 -4 11 -16 13 -42 9
-42 -7 -39 0 10 27 47 25 74 25 82 -2z m54 -74 c25 -17 31 -49 7 -41 -8 4 -22
-5 -34 -21 -16 -21 -20 -23 -21 -9 0 9 -5 17 -11 17 -8 0 -7 5 1 15 10 12 10
19 2 27 -17 17 -59 -16 -67 -52 -7 -30 -29 -49 -42 -37 -8 8 35 89 55 105 22
17 83 15 110 -4z m82 -81 c0 -14 -13 -16 -47 -7 -31 8 -19 23 17 22 18 -1 30
-6 30 -15z m-70 -21 c0 -14 -72 -32 -89 -22 -14 8 -14 9 -1 14 8 2 22 7 30 9
25 9 60 8 60 -1z"/>
<path d="M6635 7870 c-3 -5 7 -16 22 -22 15 -7 34 -18 41 -25 8 -7 23 -18 35
-25 21 -11 21 -10 7 8 -26 33 -38 44 -50 44 -6 0 -9 4 -6 9 3 5 -1 12 -10 15
-22 8 -32 8 -39 -4z"/>
<path d="M6365 7740 c3 -5 11 -10 16 -10 6 0 7 5 4 10 -3 6 -11 10 -16 10 -6
0 -7 -4 -4 -10z"/>
<path d="M6988 7571 c-10 -12 -13 -36 -10 -89 3 -66 1 -77 -23 -112 -23 -33
-25 -41 -13 -59 7 -12 16 -21 21 -21 4 0 5 -5 2 -10 -9 -15 22 -60 41 -60 8 0
17 7 20 15 10 25 21 17 54 -36 23 -37 28 -54 20 -59 -9 -6 -9 -13 -1 -26 10
-18 10 -18 11 -1 0 10 5 15 10 12 18 -11 42 23 34 47 -4 13 -7 37 -5 54 1 19
-5 37 -15 45 -28 23 -44 70 -31 90 8 13 8 25 -1 44 -11 25 -11 26 10 23 20 -3
24 -11 28 -53 3 -27 16 -67 29 -88 21 -34 27 -38 59 -35 29 2 37 -1 40 -15 2
-11 -2 -18 -10 -16 -42 5 -47 -1 -23 -26 25 -24 32 -45 17 -45 -4 0 -13 5 -20
12 -17 17 -15 -9 2 -41 16 -28 0 -57 -21 -39 -8 6 -19 6 -32 -2 -14 -7 -27 -8
-40 -1 -10 6 -21 7 -25 4 -12 -12 -44 28 -41 53 1 13 -4 32 -11 41 -12 17 -13
17 -19 0 -4 -9 0 -35 9 -57 15 -38 15 -40 -4 -40 -10 0 -25 -7 -32 -16 -59
-71 -87 -96 -103 -90 -13 5 -16 2 -11 -9 5 -13 0 -15 -29 -9 -40 7 -48 -9 -12
-27 38 -19 57 -51 57 -96 0 -50 -5 -51 -90 -29 -29 8 -58 12 -64 10 -7 -3 -11
-40 -12 -94 0 -79 2 -90 18 -90 9 0 25 -8 35 -19 14 -14 26 -17 58 -12 55 8
77 23 80 55 4 31 31 66 52 66 7 0 13 11 13 24 0 31 14 40 40 26 17 -9 27 -8
45 4 32 21 31 22 59 -22 13 -21 42 -57 64 -81 23 -24 43 -53 46 -65 2 -12 4
-8 3 9 -1 22 2 29 13 27 8 -2 -3 16 -26 40 -23 24 -44 50 -48 58 -4 8 -13 26
-21 40 -20 35 -1 52 23 21 9 -13 36 -45 60 -71 23 -26 42 -57 42 -68 0 -12 9
-37 20 -57 11 -20 20 -44 20 -55 0 -10 5 -22 11 -26 8 -5 10 1 7 19 -4 18 -1
24 9 20 9 -4 6 8 -9 33 -19 32 -20 37 -5 31 11 -4 17 -1 17 8 0 17 16 20 25 5
3 -5 12 -7 20 -4 11 5 12 10 4 26 -12 23 -3 148 11 148 10 0 24 -19 26 -38 2
-8 4 -15 6 -15 32 -16 46 -30 60 -58 44 -89 -11 150 -69 296 -62 157 -195 386
-219 378 -13 -4 -47 44 -40 56 8 12 -52 79 -85 97 -17 8 -40 25 -51 36 -27 27
-61 31 -80 9z m207 -131 c3 -5 1 -10 -4 -10 -6 0 -11 5 -11 10 0 6 2 10 4 10
3 0 8 -4 11 -10z m305 -655 c0 -14 -4 -25 -10 -25 -11 0 -14 33 -3 43 11 11
13 8 13 -18z"/>
<path d="M6395 7540 c-3 -5 3 -10 14 -10 12 0 21 -7 21 -15 0 -26 3 -30 31
-44 29 -13 80 -10 109 9 12 8 11 13 -9 33 -18 20 -30 24 -63 21 -22 -2 -43 -6
-48 -9 -4 -3 -10 2 -14 10 -6 17 -32 20 -41 5z"/>
<path d="M6777 7248 c-6 -19 13 -69 24 -62 5 3 9 -4 9 -15 0 -12 6 -21 14 -21
20 0 32 -40 15 -51 -7 -4 -10 -11 -6 -15 4 -4 2 -13 -4 -21 -9 -10 -7 -13 10
-13 11 0 21 -4 21 -10 0 -5 -7 -10 -15 -10 -8 0 -15 -3 -15 -8 0 -4 27 -8 60
-8 49 -1 58 2 49 13 -9 9 -8 13 0 13 6 0 11 7 11 15 0 8 -7 15 -15 15 -9 0
-19 10 -24 23 -5 13 -16 29 -25 36 -9 7 -16 19 -16 26 0 7 -7 16 -16 19 -11 4
-14 13 -10 31 5 21 3 25 -15 25 -15 0 -19 5 -15 15 3 10 -1 15 -13 15 -11 0
-21 -6 -24 -12z"/>
<path d="M5467 7189 c7 -7 15 -10 18 -7 3 3 -2 9 -12 12 -14 6 -15 5 -6 -5z"/>
<path d="M6740 7160 c0 -5 -7 -10 -15 -10 -8 0 -15 -7 -15 -15 0 -8 5 -15 10
-15 6 0 8 -11 4 -25 -6 -23 -3 -25 24 -25 35 0 44 11 47 52 2 19 -3 32 -15 38
-24 13 -40 13 -40 0z"/>
<path d="M4367 6728 c-2 -18 -1 -42 4 -53 5 -14 8 -4 8 33 1 59 -4 68 -12 20z"/>
<path d="M7121 6724 c0 -11 3 -14 6 -6 3 7 2 16 -1 19 -3 4 -6 -2 -5 -13z"/>
<path d="M7120 6660 c0 -16 5 -30 10 -30 6 0 10 14 10 30 0 17 -4 30 -10 30
-5 0 -10 -13 -10 -30z"/>
<path d="M7458 6640 c-7 -11 -20 -20 -29 -20 -14 0 -15 -7 -8 -46 10 -53 26
-77 45 -70 7 3 16 1 19 -3 3 -5 15 -7 26 -4 21 6 21 4 14 -58 -10 -95 -11 -98
-48 -96 -34 2 -103 40 -109 59 -7 19 -38 0 -38 -22 0 -11 -6 -23 -14 -26 -19
-7 -64 22 -71 47 -4 10 -17 22 -30 25 -34 9 -71 50 -57 66 10 13 12 67 2 69
-57 15 -194 13 -224 -3 -23 -12 -38 -13 -67 -5 -22 5 -39 15 -39 21 0 6 -9 -3
-19 -20 -11 -17 -30 -34 -43 -37 -25 -7 -48 -43 -48 -76 0 -21 -40 -61 -62
-61 -14 0 -55 -42 -100 -102 -10 -13 -27 -36 -39 -51 -14 -18 -18 -31 -12 -35
16 -11 7 -89 -15 -126 -22 -37 -27 -102 -8 -114 17 -11 46 -71 46 -95 0 -12
21 -44 46 -70 42 -45 48 -48 80 -42 20 3 50 1 67 -4 24 -8 46 -8 87 3 67 17
100 8 100 -29 0 -14 3 -24 8 -24 59 10 71 -19 33 -81 -25 -40 -29 -57 -29
-116 0 -91 -24 -142 -107 -224 -93 -92 -90 -100 38 -84 189 23 246 39 290 81
22 21 59 68 82 104 24 37 48 70 54 73 19 12 122 193 161 283 33 77 39 102 46
203 8 117 8 262 -2 335 l-5 40 21 -40 c18 -34 21 -58 22 -168 0 -70 2 -126 4
-124 2 2 13 57 25 123 14 79 21 168 22 264 2 137 -12 325 -20 288 -5 -22 -26
-23 -43 -3 -17 21 -37 19 -52 -5z"/>
<path d="M4382 6590 c0 -14 2 -19 5 -12 2 6 2 18 0 25 -3 6 -5 1 -5 -13z"/>
<path d="M7200 6580 c0 -5 9 -14 20 -20 16 -8 20 -8 20 4 0 7 -7 17 -16 20
-21 8 -24 8 -24 -4z"/>
<path d="M4790 6500 c-20 -13 -6 -24 17 -12 14 8 24 5 42 -9 13 -10 28 -19 35
-19 16 0 48 -39 41 -50 -4 -6 0 -10 7 -10 7 0 24 -3 37 -7 15 -4 22 -2 20 4
-7 20 -110 95 -142 104 -39 11 -38 11 -57 -1z"/>
<path d="M5036 6367 c4 -11 -2 -17 -18 -20 -22 -4 -22 -4 3 -6 14 0 29 -5 35
-9 5 -4 27 -5 49 -2 l39 5 -24 16 c-14 9 -40 20 -58 23 -26 6 -31 5 -26 -7z"/>
<path d="M4910 6350 c20 -13 33 -13 25 0 -3 6 -14 10 -23 10 -15 0 -15 -2 -2
-10z"/>
<path d="M5178 6313 c6 -2 18 -2 25 0 6 3 1 5 -13 5 -14 0 -19 -2 -12 -5z"/>
<path d="M7511 5944 c0 -11 3 -14 6 -6 3 7 2 16 -1 19 -3 4 -6 -2 -5 -13z"/>
</g>
</svg>
