<?xml version="1.0" standalone="no"?>
<!DOCTYPE svg PUBLIC "-//W3C//DTD SVG 20010904//EN"
 "http://www.w3.org/TR/2001/REC-SVG-20010904/DTD/svg10.dtd">
<svg version="1.0" xmlns="http://www.w3.org/2000/svg"
 width="1181.000000pt" height="1181.000000pt" viewBox="0 0 1181.000000 1181.000000"
 preserveAspectRatio="xMidYMid meet">

<g transform="translate(0.000000,1181.000000) scale(0.100000,-0.100000)"
fill="#000000" stroke="none">
<path d="M5790 8263 c-462 -16 -933 -189 -1327 -484 -112 -85 -313 -280 -398
-388 -269 -342 -441 -738 -500 -1156 -22 -153 -20 -508 4 -670 63 -424 248
-841 519 -1165 557 -667 1424 -973 2277 -804 366 73 723 240 1017 477 121 98
315 297 404 417 323 433 487 949 470 1470 -12 368 -88 679 -242 991 -238 479
-597 837 -1079 1074 -356 176 -728 253 -1145 238z m210 -850 c23 -9 248 -226
663 -641 693 -693 685 -683 674 -788 -8 -73 -46 -138 -105 -175 -44 -28 -53
-30 -124 -27 l-78 3 0 -435 c0 -239 -4 -461 -10 -494 -19 -119 -83 -207 -188
-258 l-67 -33 -860 0 -860 0 -55 22 c-70 29 -145 101 -179 173 l-26 55 -3 487
-3 486 -58 -5 c-33 -3 -75 -3 -94 1 -47 9 -121 75 -142 128 -22 54 -22 136 0
179 20 41 1267 1293 1310 1316 64 35 131 37 205 6z"/>
<path d="M5573 5786 c-62 -28 -63 -36 -63 -436 0 -397 1 -405 60 -435 26 -14
76 -15 344 -13 l314 3 26 24 c14 14 30 41 36 60 15 53 12 687 -3 730 -7 19
-25 44 -40 55 -27 20 -41 21 -335 23 -246 2 -313 0 -339 -11z"/>
</g>
</svg>
