<?xml version="1.0" standalone="no"?>
<!DOCTYPE svg PUBLIC "-//W3C//DTD SVG 20010904//EN"
 "http://www.w3.org/TR/2001/REC-SVG-20010904/DTD/svg10.dtd">
<svg version="1.0" xmlns="http://www.w3.org/2000/svg"
 width="1181.000000pt" height="1181.000000pt" viewBox="0 0 1181.000000 1181.000000"
 preserveAspectRatio="xMidYMid meet">

<g transform="translate(0.000000,1181.000000) scale(0.100000,-0.100000)"
fill="#000000" stroke="none">
<path d="M5250 8084 c-615 -83 -1150 -484 -1404 -1053 -64 -143 -106 -283
-138 -461 -19 -111 -17 -450 5 -566 73 -390 237 -705 507 -974 266 -266 544
-416 917 -496 116 -25 148 -28 338 -28 134 -1 237 4 285 12 297 53 553 158
774 317 43 30 80 55 83 55 4 0 302 -295 662 -655 455 -454 667 -659 693 -670
157 -65 317 96 253 253 -11 26 -214 236 -672 694 l-657 657 24 33 c230 306
352 650 367 1033 20 516 -181 1012 -554 1365 -400 379 -944 556 -1483 484z
m450 -399 c383 -58 734 -280 951 -601 113 -168 185 -350 221 -559 38 -224 12
-501 -66 -709 -177 -469 -562 -796 -1053 -895 -126 -26 -375 -29 -507 -6 -464
81 -859 393 -1048 827 -161 373 -149 815 33 1181 72 145 140 239 264 363 210
211 464 344 749 395 126 22 328 24 456 4z"/>
</g>
</svg>
