<?xml version="1.0" standalone="no"?>
<!DOCTYPE svg PUBLIC "-//W3C//DTD SVG 20010904//EN"
 "http://www.w3.org/TR/2001/REC-SVG-20010904/DTD/svg10.dtd">
<svg version="1.0" xmlns="http://www.w3.org/2000/svg"
 width="1181.000000pt" height="1181.000000pt" viewBox="0 0 1181.000000 1181.000000"
 preserveAspectRatio="xMidYMid meet">

<g transform="translate(0.000000,1181.000000) scale(0.100000,-0.100000)"
fill="#000000" stroke="none">
<path d="M5785 8260 c-512 -39 -979 -363 -1199 -830 -92 -198 -126 -337 -133
-555 -4 -137 -2 -175 16 -261 75 -366 323 -864 752 -1511 l107 -163 -181 0
-182 0 -169 -677 c-93 -373 -171 -686 -174 -695 -4 -17 62 -18 1286 -18 l1290
0 -165 658 c-90 361 -168 674 -174 695 l-10 37 -185 0 -184 0 118 178 c388
581 643 1080 732 1431 57 227 41 482 -47 735 -144 413 -458 736 -870 892 -97
36 -253 72 -342 79 -157 12 -188 12 -286 5z m360 -294 c376 -90 659 -311 821
-641 92 -188 139 -437 114 -607 -54 -373 -425 -1059 -1038 -1918 -69 -96 -127
-177 -128 -179 -8 -9 -41 32 -146 177 -541 757 -926 1447 -1012 1815 -33 138
-39 216 -26 322 40 329 204 619 459 811 168 126 360 205 576 238 66 10 312 -2
380 -18z m-545 -3408 c40 -55 127 -168 193 -250 97 -121 121 -147 133 -137 8
6 62 75 121 153 59 77 141 185 183 239 l75 97 164 -2 165 -3 96 -385 c53 -212
100 -397 103 -412 l7 -28 -934 0 -934 0 95 378 c52 207 98 394 104 415 l10 37
172 0 173 0 74 -102z"/>
<path d="M5750 7271 c-179 -58 -313 -187 -372 -359 -18 -53 -23 -89 -23 -172
0 -83 5 -119 23 -172 107 -312 458 -466 757 -333 110 49 229 165 276 271 73
163 64 359 -24 514 -66 116 -202 219 -337 255 -77 21 -231 18 -300 -4z m265
-275 c18 -8 52 -31 75 -53 121 -108 121 -298 0 -406 -57 -52 -103 -70 -180
-71 -85 0 -157 31 -210 91 -138 157 -61 400 145 454 39 10 128 2 170 -15z"/>
</g>
</svg>
