<?xml version="1.0" standalone="no"?>
<!DOCTYPE svg PUBLIC "-//W3C//DTD SVG 20010904//EN"
 "http://www.w3.org/TR/2001/REC-SVG-20010904/DTD/svg10.dtd">
<svg version="1.0" xmlns="http://www.w3.org/2000/svg"
 width="1181.000000pt" height="1181.000000pt" viewBox="0 0 1181.000000 1181.000000"
 preserveAspectRatio="xMidYMid meet">

<g transform="translate(0.000000,1181.000000) scale(0.100000,-0.100000)"
fill="#000000" stroke="none">
<path d="M4830 8170 c-52 -32 -103 -69 -112 -81 -40 -48 -35 -59 293 -585 172
-274 314 -507 317 -516 3 -12 -1 -18 -13 -18 -10 0 -35 -18 -56 -40 l-38 -40
-25 57 c-26 55 -27 55 -46 38 -11 -10 -22 -26 -25 -36 -9 -27 -17 -24 -42 16
-32 49 -66 69 -92 56 -24 -13 -36 -66 -26 -117 l6 -37 50 49 c27 26 49 44 49
39 0 -5 -21 -31 -47 -57 l-48 -48 235 -235 c194 -194 232 -237 221 -247 -9 -8
-11 -8 -7 -1 3 6 -89 106 -226 241 -183 182 -235 228 -246 219 -10 -8 -16 -7
-23 4 -8 11 -9 9 -5 -6 5 -16 -6 -32 -39 -65 -56 -55 -59 -87 -12 -124 27 -22
29 -26 11 -26 -31 0 -56 -23 -48 -43 5 -15 95 -63 203 -109 l34 -14 -32 -23
c-31 -22 -36 -23 -154 -15 l-122 9 45 14 c25 8 49 18 54 22 4 4 -3 24 -17 44
l-26 38 -64 -62 -65 -62 -67 3 -68 3 97 95 c53 52 96 99 96 104 0 6 -53 -43
-118 -107 -105 -104 -146 -138 -127 -107 3 6 -4 10 -16 10 -21 0 -19 -5 21
-47 25 -27 -2 -3 -60 53 -58 55 -114 107 -125 115 -19 13 -19 13 -5 -6 8 -11
35 -39 59 -62 25 -24 42 -46 38 -50 -4 -3 -103 -8 -220 -11 -229 -5 -260 -11
-277 -58 -13 -33 -13 -484 0 -504 8 -12 32 7 127 100 64 63 115 112 113 108
-3 -4 -56 -59 -119 -122 l-113 -114 30 -16 c17 -9 54 -16 81 -16 44 0 51 -3
56 -22 3 -13 30 -238 59 -501 36 -319 58 -483 67 -494 10 -11 10 -14 2 -9 -7
4 -13 4 -13 1 0 -40 54 -471 59 -473 4 -1 5 -17 3 -35 -2 -17 6 -107 17 -199
16 -141 24 -176 47 -218 32 -59 94 -119 153 -149 103 -53 58 -52 1598 -49
l1428 3 55 23 c153 63 229 170 244 342 3 36 10 103 16 150 12 97 74 644 90
795 6 55 12 118 15 140 3 22 16 144 30 270 13 127 30 273 36 326 l12 97 64 4
c53 3 68 9 91 31 l27 27 0 251 0 251 -33 29 -32 29 -588 1 c-323 0 -766 1
-985 2 l-399 2 -41 67 c-23 37 -77 123 -119 190 -83 133 -100 167 -78 153 9
-6 11 -4 5 5 -5 8 32 53 111 133 l119 122 -126 -123 c-69 -67 -130 -122 -134
-122 -5 0 -6 3 -2 6 3 4 -9 26 -28 49 -19 23 -35 45 -35 48 0 3 -21 39 -47 80
-110 173 -613 975 -669 1068 -82 134 -97 149 -148 149 -32 -1 -61 -13 -136
-60z m160 -1371 c0 -5 -9 -4 -19 3 -11 7 -17 16 -14 20 5 10 33 -10 33 -23z
m517 -91 c15 -24 62 -101 105 -173 l78 -130 -72 -3 c-53 -2 -75 1 -86 12 -13
13 -13 17 -1 33 13 17 13 17 -6 3 -11 -8 -30 -23 -42 -34 -13 -11 -23 -16 -23
-12 0 4 10 16 22 26 l23 18 -20 22 c-25 28 -75 50 -113 50 -16 0 -31 2 -34 5
-3 3 4 31 15 63 13 39 17 71 13 100 -5 38 -3 44 17 52 12 5 39 9 59 9 34 1 41
-4 65 -41z m2133 -632 l305 -311 -307 304 c-279 277 -308 303 -324 290 -16
-13 -16 -12 -3 9 8 12 16 21 19 20 3 0 142 -141 310 -312z m-380 231 c0 -2
-15 -16 -32 -33 l-33 -29 29 33 c28 30 36 37 36 29z m-1197 -24 c-18 -2 -46
-17 -63 -33 -63 -59 -25 -154 65 -163 l40 -4 -43 -1 c-36 -2 -49 3 -73 27 -65
66 -16 183 76 179 l30 -1 -32 -4z m-1437 -35 l29 -33 -32 29 c-31 28 -38 36
-30 36 2 0 16 -15 33 -32z m1518 1 c16 -19 26 -43 26 -62 0 -35 -33 -97 -51
-97 -6 0 1 14 15 31 37 43 35 89 -5 128 -17 17 -26 31 -21 31 6 0 22 -14 36
-31z m-39 -24 c14 -13 25 -32 25 -42 0 -19 -17 -50 -23 -43 -2 3 -18 24 -36
47 -18 24 -30 47 -26 53 10 17 35 11 60 -15z m-47 -55 l32 -50 -25 0 c-44 0
-85 66 -58 93 12 12 18 7 51 -43z m-427 -9 c39 -39 40 -87 2 -123 -54 -49 -84
-42 -43 9 24 31 26 85 4 107 -19 20 -28 20 -63 1 -86 -44 -165 -225 -140 -317
13 -51 58 -98 94 -98 54 0 145 55 145 88 0 29 35 85 64 103 43 26 101 25 120
-3 18 -26 5 -58 -24 -58 -22 0 -36 16 -18 22 16 6 3 38 -15 38 -27 0 -66 -41
-73 -75 -14 -79 31 -103 66 -35 27 54 50 53 50 -1 l0 -41 33 19 c27 16 34 29
46 78 14 60 24 75 50 75 9 0 12 -9 9 -29 l-4 -30 29 25 c33 27 74 41 87 28 6
-6 1 -36 -11 -74 -28 -92 -16 -112 40 -64 24 20 31 34 31 63 0 40 23 81 46 81
16 0 17 -10 4 -64 -10 -45 -3 -99 13 -93 6 2 19 14 29 28 17 23 17 28 4 59
-26 63 -2 114 51 108 27 -3 28 -5 28 -55 -1 -58 10 -66 41 -32 40 44 103 61
145 39 34 -19 18 -70 -23 -70 -20 0 -23 11 -8 26 8 8 6 15 -5 24 -35 29 -85
-27 -85 -96 0 -59 44 -56 73 5 7 14 20 27 31 29 16 4 17 -1 11 -47 -5 -35 -3
-56 5 -66 7 -8 10 -20 8 -27 -3 -8 -16 -1 -38 20 -23 23 -36 30 -43 23 -33
-33 -97 7 -97 60 0 27 -3 30 -22 23 -13 -3 -44 -26 -70 -50 -51 -48 -77 -55
-85 -24 -3 11 -7 20 -10 20 -2 0 -21 -9 -43 -20 -81 -41 -111 -14 -86 80 8 30
13 57 11 59 -8 7 -64 -63 -75 -93 -7 -17 -15 -38 -19 -46 -11 -21 -41 -25 -41
-5 0 14 -3 14 -30 0 -33 -17 -66 -20 -75 -5 -4 7 -12 7 -25 0 -27 -14 -51 -12
-71 6 -16 14 -22 13 -71 -20 -114 -76 -221 -48 -258 67 -35 111 52 301 163
356 60 30 102 27 138 -8z m1499 16 c0 -2 -15 -16 -32 -33 l-33 -29 29 33 c28
30 36 37 36 29z m-2900 -60 c0 -2 -15 -16 -32 -33 l-33 -29 29 33 c28 30 36
37 36 29z m541 -14 c13 -16 12 -17 -3 -4 -10 7 -18 15 -18 17 0 8 8 3 21 -13z
m2229 -56 c0 -2 -15 -16 -32 -33 l-33 -29 29 33 c28 30 36 37 36 29z m-160
-161 c0 -2 -8 -10 -17 -17 -16 -13 -17 -12 -4 4 13 16 21 21 21 13z m-2220
-361 c40 -20 50 -43 50 -110 l0 -57 -47 41 c-49 43 -82 57 -109 47 -15 -6 -14
-9 6 -31 13 -14 31 -25 40 -25 9 0 37 -13 63 -30 44 -28 47 -32 47 -72 l-1
-43 -96 100 c-53 55 -114 120 -137 145 l-41 45 45 -42 c51 -47 60 -52 53 -25
-5 23 48 72 78 72 11 0 33 -7 49 -15z m1780 -7 c18 -13 35 -32 37 -43 1 -11 3
-138 3 -283 0 -295 -4 -312 -63 -331 -39 -13 -72 -4 -101 28 -27 30 -37 191
-13 191 17 0 47 36 47 57 0 23 -17 13 -30 -17 -7 -16 -16 -30 -20 -30 -12 0
-1 382 12 406 22 46 79 55 128 22z m607 -13 c21 -23 23 -37 23 -127 0 -108 2
-105 -52 -83 -13 5 -22 -3 -36 -32 -11 -21 -36 -53 -55 -71 l-35 -34 -5 44
c-10 90 -3 272 13 295 32 49 108 54 147 8z m562 21 c45 -24 52 -54 50 -222 0
-85 -4 -154 -7 -154 -3 0 -15 9 -27 20 -26 24 -55 17 -55 -13 0 -37 -70 -120
-87 -103 -3 3 4 20 15 38 11 18 23 48 27 66 6 31 5 32 -24 32 l-30 0 0 128
c-1 144 9 186 47 207 34 18 56 18 91 1z m-2325 -42 c14 -31 17 -72 16 -295 0
-288 -4 -308 -61 -328 -23 -8 -38 -7 -64 3 -45 19 -55 42 -55 122 0 63 3 71
33 104 l32 35 -35 -30 c-19 -16 -59 -52 -88 -80 l-52 -50 177 -180 178 -180
-180 177 -180 178 -240 -238 -240 -237 237 240 238 240 -118 120 -117 120 120
-118 120 -117 58 58 c54 54 57 60 57 106 0 48 0 49 20 31 25 -23 26 -6 1 26
-15 19 -19 47 -23 147 -3 67 -2 125 2 127 4 3 22 0 39 -6 26 -9 35 -8 51 6 10
9 21 27 24 40 8 32 28 23 50 -21z m605 -63 l-1 -56 -9 45 c-20 110 -20 107 -4
86 10 -13 15 -40 14 -75z m1491 19 c0 -5 -5 -10 -11 -10 -5 0 -7 5 -4 10 3 6
8 10 11 10 2 0 4 -4 4 -10z m-1900 -3 c0 -1 -30 -32 -67 -67 l-68 -65 65 68
c60 62 70 72 70 64z m-770 -364 c0 -156 -1 -163 -24 -190 -19 -22 -32 -28 -66
-28 -34 0 -47 6 -66 28 -24 28 -24 29 -24 266 0 131 3 241 7 245 4 3 44 -31
90 -76 l83 -83 0 -162z m2182 -93 c4 0 44 36 89 80 45 44 83 80 85 80 13 0
-22 -43 -85 -104 l-71 -68 102 -112 102 -111 -110 107 -109 108 -310 -308
-310 -307 307 310 308 310 -178 180 -177 180 175 -173 c96 -94 178 -172 182
-172z m-1117 161 c-7 -6 -65 50 -65 63 0 5 16 -5 35 -24 19 -18 32 -36 30 -39z
m70 -61 c27 -27 47 -52 44 -55 -3 -2 -30 20 -59 50 -30 30 -50 55 -44 55 5 0
32 -22 59 -50z m1220 -30 c3 -5 -1 -10 -10 -10 -9 0 -13 5 -10 10 3 6 8 10 10
10 2 0 7 -4 10 -10z m796 -97 c11 -15 11 -16 -1 -6 -11 10 -17 10 -29 0 -14
-11 -14 -10 -2 6 7 9 15 17 16 17 1 0 9 -8 16 -17z m-1976 -31 c-3 -17 -16
-38 -27 -48 -12 -11 -19 -14 -16 -9 46 101 56 114 43 57z m-119 -60 c-4 -3
-14 2 -24 12 -16 18 -16 18 6 6 13 -6 21 -14 18 -18z m1557 -311 c26 -27 47
-53 47 -57 0 -4 -38 -46 -85 -94 l-85 -87 15 -29 c20 -38 19 -76 -2 -122 -10
-20 -20 -62 -24 -92 -3 -30 -5 67 -5 215 0 149 2 219 3 156 l4 -115 84 84 85
85 -73 74 c-39 41 -58 65 -42 53 17 -11 52 -43 78 -71z m-2341 42 c23 -24 23
-27 26 -301 2 -260 1 -279 -17 -309 -36 -59 -127 -55 -158 7 -17 33 -17 180
-1 180 9 0 9 3 0 12 -17 17 -17 357 0 394 25 54 107 63 150 17z m1182 -2 c15
-15 20 -38 24 -100 3 -53 1 -81 -6 -81 -14 0 -51 48 -58 76 -6 21 -10 23 -65
17 -58 -5 -59 -5 -59 21 0 91 99 131 164 67z m589 -2 c16 -20 18 -44 16 -236
-1 -198 -2 -213 -18 -200 -9 8 -46 17 -83 20 -57 5 -67 4 -71 -11 -3 -9 -5 78
-6 193 0 185 2 213 17 232 36 46 108 47 145 2z m-1231 6 c16 -21 23 -23 34
-14 8 7 17 10 19 7 3 -3 -1 -11 -9 -17 -12 -10 -11 -20 11 -67 23 -51 25 -65
21 -167 -3 -110 -4 -113 -47 -192 -52 -95 -86 -135 -118 -135 l-23 0 0 272 c0
268 0 272 -22 297 l-23 26 28 -24 c15 -14 27 -19 27 -13 0 19 38 52 61 52 12
0 30 -11 41 -25z m-1042 -160 c-24 -25 -46 -45 -49 -45 -3 0 15 20 39 45 24
25 46 45 49 45 3 0 -15 -20 -39 -45z m-120 -119 c0 -2 -8 -10 -17 -17 -16 -13
-17 -12 -4 4 13 16 21 21 21 13z m1821 -70 c-9 -10 -9 -15 -1 -18 8 -2 9 -21
4 -57 -6 -49 -8 -52 -20 -36 -16 22 -18 61 -4 70 6 3 10 11 10 18 0 6 -41 -29
-92 -78 -50 -50 -85 -81 -77 -70 23 33 173 184 183 184 5 1 3 -5 -3 -13z
m1529 -359 c0 -2 -15 -16 -32 -33 l-33 -29 29 33 c28 30 36 37 36 29z m-130
-130 c0 -2 -12 -14 -27 -28 l-28 -24 24 28 c23 25 31 32 31 24z"/>
<path d="M5569 6493 c-13 -16 -12 -17 4 -4 9 7 17 15 17 17 0 8 -8 3 -21 -13z"/>
<path d="M6225 5957 c-4 -8 -1 -26 7 -39 l13 -23 3 29 c4 33 -14 59 -23 33z"/>
<path d="M6296 5280 c-18 -45 -21 -96 -7 -105 6 -3 12 9 15 27 8 55 14 118 11
118 -1 0 -10 -18 -19 -40z"/>
<path d="M6320 5121 c0 -5 -11 -23 -25 -39 -28 -34 -18 -52 14 -24 23 19 39
72 22 72 -6 0 -11 -4 -11 -9z"/>
<path d="M6341 5076 c-13 -54 -13 -56 -1 -56 5 0 16 12 23 26 l14 27 7 -27 c5
-22 10 -25 20 -16 11 8 15 8 19 -2 3 -7 6 8 6 35 1 26 -3 47 -9 47 -5 0 -10
-8 -11 -17 0 -14 -3 -13 -11 5 -19 37 -44 28 -57 -22z"/>
<path d="M7245 8170 c-16 -17 -24 -30 -19 -30 13 0 59 48 52 55 -2 3 -17 -9
-33 -25z"/>
<path d="M7492 8077 c51 -50 102 -98 113 -106 11 -8 -27 33 -85 92 -57 59
-108 107 -113 107 -5 0 33 -42 85 -93z"/>
<path d="M7150 8075 c-13 -14 -19 -25 -13 -25 12 0 48 38 41 45 -2 3 -15 -6
-28 -20z"/>
<path d="M6736 8053 c-50 -13 -92 -26 -95 -29 -3 -2 5 -15 17 -27 18 -18 46
-25 145 -39 173 -24 162 -27 125 35 -60 100 -54 98 -192 60z"/>
<path d="M6562 8013 c-31 -6 -18 -23 18 -23 16 0 40 -4 54 -10 30 -11 34 0 8
23 -18 17 -34 19 -80 10z"/>
<path d="M7301 7923 c-31 -39 -36 -70 -17 -109 22 -48 70 -74 131 -73 l50 1
-45 9 c-88 17 -139 113 -94 177 22 31 0 27 -25 -5z"/>
<path d="M6190 7497 c0 -2 15 -16 33 -33 l32 -29 -29 33 c-28 30 -36 37 -36
29z"/>
<path d="M6320 7365 c19 -19 36 -35 39 -35 3 0 -10 16 -29 35 -19 19 -36 35
-39 35 -3 0 10 -16 29 -35z"/>
<path d="M6419 7343 l-24 -28 28 24 c15 14 27 26 27 28 0 8 -8 1 -31 -24z"/>
<path d="M6460 7228 c41 -45 50 -53 50 -45 0 2 -21 23 -47 47 l-48 45 45 -47z"/>
<path d="M6667 7126 l-68 -11 83 -82 c46 -46 87 -83 91 -83 4 0 7 43 7 95 0
109 10 102 -113 81z"/>
<path d="M3775 7070 c33 -33 62 -60 64 -60 3 0 -21 27 -54 60 -33 33 -62 60
-64 60 -3 0 21 -27 54 -60z"/>
<path d="M6569 7115 c-3 -3 -57 -12 -120 -20 -63 -8 -144 -20 -181 -26 l-68
-11 0 -135 0 -135 23 6 c12 3 123 19 247 36 339 46 310 40 310 64 0 22 -201
232 -211 221z"/>
<path d="M6950 6935 c-46 -46 -82 -87 -79 -89 3 -3 45 35 94 84 49 50 85 90
80 90 -6 0 -48 -38 -95 -85z"/>
<path d="M3870 6975 c13 -14 26 -25 28 -25 3 0 -5 11 -18 25 -13 14 -26 25
-28 25 -3 0 5 -11 18 -25z"/>
<path d="M4473 6974 l-42 -15 -3 -81 -3 -81 -38 56 c-59 85 -70 92 -117 78
-52 -15 -59 -30 -26 -53 26 -20 152 -168 142 -168 -3 0 -32 20 -63 43 -111 84
-107 82 -137 46 -39 -46 -31 -61 40 -79 62 -17 172 -91 173 -118 1 -10 5 -9
17 3 9 9 41 30 70 47 43 24 52 33 45 46 -10 20 -31 138 -31 176 0 15 9 41 21
57 19 27 20 60 2 58 -4 0 -27 -7 -50 -15z"/>
<path d="M4870 6927 c0 -2 15 -16 33 -33 l32 -29 -29 33 c-28 30 -36 37 -36
29z"/>
<path d="M6851 6833 c1 -5 29 -33 63 -63 l61 -54 -60 62 c-60 63 -66 68 -64
55z"/>
<path d="M6740 6725 c-7 -9 -11 -18 -8 -20 3 -3 11 1 18 10 7 9 11 18 8 20 -3
3 -11 -1 -18 -10z"/>
<path d="M4140 6706 c0 -2 8 -10 18 -17 15 -13 16 -12 3 4 -13 16 -21 21 -21
13z"/>
<path d="M6995 6690 c10 -11 20 -20 23 -20 3 0 -3 9 -13 20 -10 11 -20 20 -23
20 -3 0 3 -9 13 -20z"/>
<path d="M6650 6635 c-11 -13 -10 -14 4 -9 9 3 16 10 16 15 0 13 -6 11 -20 -6z"/>
<path d="M7065 6620 c10 -11 20 -20 23 -20 3 0 -3 9 -13 20 -10 11 -20 20 -23
20 -3 0 3 -9 13 -20z"/>
<path d="M7120 6566 c0 -2 8 -10 18 -17 15 -13 16 -12 3 4 -13 16 -21 21 -21
13z"/>
</g>
</svg>
