<?xml version="1.0" standalone="no"?>
<!DOCTYPE svg PUBLIC "-//W3C//DTD SVG 20010904//EN"
 "http://www.w3.org/TR/2001/REC-SVG-20010904/DTD/svg10.dtd">
<svg version="1.0" xmlns="http://www.w3.org/2000/svg"
 width="1181.000000pt" height="1181.000000pt" viewBox="0 0 1181.000000 1181.000000"
 preserveAspectRatio="xMidYMid meet">

<g transform="translate(0.000000,1181.000000) scale(0.100000,-0.100000)"
fill="#000000" stroke="none">
<path d="M4850 8100 c-176 -22 -333 -101 -466 -234 -106 -107 -163 -197 -207
-328 -29 -87 -31 -103 -31 -243 -1 -127 3 -162 22 -230 76 -265 290 -481 562
-567 65 -20 96 -23 225 -23 177 0 236 13 370 80 199 99 358 288 421 500 23 77
27 109 27 225 1 162 -14 235 -78 365 -103 213 -304 379 -525 434 -91 23 -232
32 -320 21z m363 -67 c127 -44 190 -86 302 -198 82 -82 108 -115 143 -185 59
-119 83 -220 83 -355 1 -143 -20 -238 -75 -350 -102 -206 -290 -362 -506 -422
-102 -28 -322 -25 -420 6 -417 130 -648 543 -540 965 67 262 290 483 560 556
63 17 99 20 220 17 131 -3 153 -6 233 -34z"/>
<path d="M4906 7831 c-5 -8 -1 -77 8 -117 0 -3 -21 -13 -49 -23 -27 -10 -57
-21 -66 -25 -14 -6 -18 1 -24 41 -7 57 -16 75 -32 65 -7 -5 -8 -25 0 -70 l10
-63 -36 -37 c-79 -82 -114 -229 -66 -281 27 -29 60 -41 114 -41 33 0 45 -4 49
-17 5 -18 46 -254 46 -267 0 -14 -48 -4 -99 19 -35 17 -58 22 -64 16 -13 -13
45 -48 115 -68 l56 -16 11 -66 c18 -106 22 -121 32 -121 18 0 19 25 6 101
l-14 77 66 5 c36 3 68 3 70 1 2 -2 9 -34 15 -71 9 -53 15 -69 30 -71 15 -3 18
0 13 20 -4 13 -9 48 -13 78 l-6 55 46 18 c89 36 131 116 107 205 -23 86 -93
142 -178 142 l-40 0 -27 163 c-14 89 -26 168 -26 176 0 20 56 6 96 -24 52 -40
74 -30 33 14 -26 27 -78 51 -113 51 -21 0 -25 6 -35 62 -11 63 -24 88 -35 69z
m19 -183 c2 -13 14 -79 25 -148 11 -69 23 -137 26 -152 5 -26 5 -26 -65 -30
-82 -4 -69 -25 -101 172 -22 140 -22 140 45 164 55 20 64 19 70 -6z m-141
-193 c10 -60 20 -118 23 -129 5 -17 0 -18 -53 -14 -77 7 -99 31 -91 104 6 57
23 96 63 144 34 40 36 36 58 -105z m227 -320 l26 -156 -71 3 -70 3 -22 125
c-34 186 -37 177 61 179 l51 1 25 -155z m96 144 c49 -18 81 -58 94 -114 16
-73 -6 -119 -74 -154 -26 -13 -50 -21 -54 -18 -5 6 -52 264 -53 290 0 11 54 9
87 -4z"/>
<path d="M6700 6850 c-300 -49 -566 -287 -652 -585 -33 -115 -33 -333 0 -450
62 -216 224 -409 427 -509 113 -56 183 -75 312 -83 125 -7 228 8 343 51 245
91 446 320 507 577 24 105 22 298 -5 400 -73 274 -299 502 -573 579 -85 24
-272 34 -359 20z m330 -45 c90 -22 233 -95 306 -157 124 -107 204 -222 252
-366 24 -70 26 -91 26 -242 0 -151 -2 -172 -26 -242 -67 -202 -213 -369 -403
-463 -131 -65 -194 -79 -355 -78 -118 0 -146 4 -220 28 -142 45 -261 122 -360
232 -265 296 -265 756 1 1048 164 179 384 271 619 260 52 -3 124 -12 160 -20z"/>
<path d="M7033 6467 c-6 -6 -41 -72 -79 -144 l-69 -133 -37 0 c-34 0 -43 7
-144 125 -97 112 -124 135 -124 104 0 -6 43 -61 96 -122 l96 -112 -76 -9 c-57
-6 -76 -12 -76 -23 0 -13 14 -14 90 -8 87 7 91 6 110 -16 11 -13 19 -34 20
-46 0 -27 -13 -30 -121 -36 -79 -4 -104 -11 -93 -28 3 -6 46 -7 113 -3 l108 7
12 -214 c12 -200 21 -251 39 -222 4 6 2 94 -5 195 -6 101 -12 197 -12 214 l-1
31 98 5 c101 5 127 12 116 30 -4 6 -43 7 -110 3 l-104 -7 0 25 c0 14 5 37 11
50 10 22 19 25 100 32 70 5 89 10 89 22 0 13 -13 15 -75 11 -41 -2 -75 -1 -75
3 0 3 29 62 65 130 36 68 65 127 65 131 0 14 -18 18 -27 5z"/>
<path d="M5299 5328 c-139 -12 -296 -70 -399 -149 -113 -87 -225 -230 -273
-349 -60 -147 -77 -344 -42 -500 49 -222 218 -437 426 -545 215 -111 499 -117
718 -15 201 94 375 294 440 504 22 72 25 99 25 241 0 142 -3 169 -25 241 -63
203 -230 400 -424 497 -123 61 -283 88 -446 75z m249 -44 c291 -59 527 -289
603 -584 8 -33 14 -106 14 -185 0 -140 -10 -197 -56 -307 -85 -206 -279 -382
-499 -450 -64 -20 -96 -23 -225 -23 -129 0 -160 3 -225 23 -254 80 -451 275
-530 527 -30 95 -38 290 -17 392 34 156 98 274 213 389 117 117 240 186 388
219 85 18 242 18 334 -1z"/>
<path d="M5303 4865 c-53 -16 -121 -56 -150 -87 -33 -36 -65 -105 -70 -152
l-5 -43 -55 -9 c-67 -11 -70 -28 -4 -32 41 -2 50 -7 55 -25 13 -49 8 -57 -34
-57 -29 0 -40 -4 -40 -15 0 -11 12 -15 45 -15 34 0 45 -4 45 -15 0 -29 48
-110 87 -146 68 -65 187 -109 296 -109 143 0 159 34 16 37 -189 3 -303 63
-354 187 -9 21 -14 41 -10 44 3 3 99 9 213 13 114 4 210 8 215 8 4 1 7 8 7 16
0 14 -26 15 -225 9 l-225 -7 0 40 0 41 168 7 c262 11 335 18 340 34 4 12 -22
13 -169 7 -96 -3 -211 -9 -256 -13 -80 -5 -83 -5 -83 15 0 72 72 179 145 215
84 41 226 47 308 13 35 -15 37 -15 37 3 0 42 -201 67 -297 36z"/>
</g>
</svg>
