<?xml version="1.0" standalone="no"?>
<!DOCTYPE svg PUBLIC "-//W3C//DTD SVG 20010904//EN"
 "http://www.w3.org/TR/2001/REC-SVG-20010904/DTD/svg10.dtd">
<svg version="1.0" xmlns="http://www.w3.org/2000/svg"
 width="1181.000000pt" height="1181.000000pt" viewBox="0 0 1181.000000 1181.000000"
 preserveAspectRatio="xMidYMid meet">

<g transform="translate(0.000000,1181.000000) scale(0.100000,-0.100000)"
fill="#000000" stroke="none">
<path d="M4656 7365 c-290 -74 -444 -392 -318 -658 94 -198 318 -310 528 -262
185 42 331 197 364 387 30 172 -54 365 -205 468 -98 67 -253 94 -369 65z m207
-40 c80 -21 131 -49 190 -103 115 -108 164 -253 133 -399 -19 -93 -46 -144
-114 -215 -243 -255 -672 -120 -734 232 -51 292 238 560 525 485z"/>
<path d="M6933 7366 c-169 -41 -305 -173 -349 -341 -8 -27 -14 -85 -14 -128 0
-230 170 -421 408 -458 273 -41 531 185 532 466 0 300 -288 531 -577 461z
m200 -41 c213 -55 352 -244 334 -454 -21 -247 -243 -425 -487 -391 -121 17
-255 104 -314 204 -67 115 -75 278 -19 398 56 120 153 204 277 239 77 22 136
23 209 4z"/>
<path d="M5805 6859 c-74 -11 -189 -65 -245 -115 -113 -102 -173 -272 -150
-421 40 -254 287 -437 533 -395 205 35 361 188 397 391 25 139 -20 286 -123
397 -106 115 -253 166 -412 143z m185 -51 c208 -62 347 -277 311 -481 -31
-178 -174 -324 -351 -357 -132 -25 -286 28 -385 131 -65 68 -100 138 -114 229
-48 304 247 566 539 478z"/>
<path d="M3562 6638 c-7 -7 -12 -24 -12 -38 0 -14 5 -31 12 -38 28 -28 88 -2
88 38 0 40 -60 66 -88 38z"/>
<path d="M8172 6638 c-7 -7 -12 -24 -12 -38 0 -53 57 -69 86 -25 15 23 15 27
0 50 -18 27 -54 33 -74 13z"/>
<path d="M3566 6274 c-9 -8 -16 -26 -16 -38 0 -54 77 -63 95 -12 8 24 6 31
-14 47 -28 23 -45 24 -65 3z"/>
<path d="M8178 6279 c-21 -12 -24 -59 -6 -77 19 -19 66 -15 78 7 14 28 13 38
-10 61 -22 22 -37 24 -62 9z"/>
<path d="M4670 6249 c-42 -4 -113 -21 -158 -38 -308 -112 -525 -409 -548 -751
l-6 -85 960 -482 c528 -266 967 -483 975 -483 9 0 450 216 979 481 l963 481
-1 86 c-2 232 -133 490 -324 634 -73 56 -199 119 -275 138 -197 49 -404 19
-570 -85 -104 -65 -201 -175 -154 -175 6 0 40 27 75 59 149 140 351 208 535
181 258 -37 455 -180 583 -422 54 -101 85 -206 92 -313 l5 -80 -555 -274
c-306 -151 -557 -273 -559 -270 -2 2 -12 53 -21 113 -58 364 -278 643 -592
748 -59 20 -89 23 -204 23 -121 0 -144 -3 -217 -28 -293 -98 -526 -403 -573
-748 -6 -46 -14 -86 -16 -88 -2 -2 -241 116 -531 262 l-528 266 2 69 c3 82 41
218 84 305 137 272 388 437 669 440 174 1 326 -59 438 -172 45 -46 66 -61 74
-53 27 27 -87 139 -197 193 -129 63 -255 84 -405 68z m1329 -559 c124 -23 250
-93 355 -195 160 -156 261 -372 282 -601 l6 -69 -374 -187 -375 -186 -384 195
c-211 107 -388 198 -393 203 -13 13 11 168 41 264 46 148 106 248 212 360 105
109 222 180 350 211 67 16 208 19 280 5z"/>
<path d="M3562 5908 c-17 -17 -15 -53 4 -72 20 -21 37 -20 65 3 20 16 22 23
14 47 -8 22 -18 30 -40 32 -17 2 -36 -3 -43 -10z"/>
<path d="M8167 5899 c-30 -42 12 -92 58 -71 50 23 38 92 -15 92 -18 0 -34 -8
-43 -21z"/>
<path d="M3562 5548 c-7 -7 -12 -24 -12 -38 0 -14 5 -31 12 -38 28 -28 88 -2
88 38 0 40 -60 66 -88 38z"/>
<path d="M8172 5548 c-7 -7 -12 -24 -12 -38 0 -53 57 -69 86 -25 15 23 15 27
0 50 -18 27 -54 33 -74 13z"/>
</g>
</svg>
