<?xml version="1.0" standalone="no"?>
<!DOCTYPE svg PUBLIC "-//W3C//DTD SVG 20010904//EN"
 "http://www.w3.org/TR/2001/REC-SVG-20010904/DTD/svg10.dtd">
<svg version="1.0" xmlns="http://www.w3.org/2000/svg"
 width="1181.000000pt" height="1181.000000pt" viewBox="0 0 1181.000000 1181.000000"
 preserveAspectRatio="xMidYMid meet">

<g transform="translate(0.000000,1181.000000) scale(0.100000,-0.100000)"
fill="#000000" stroke="none">
<path d="M5016 8259 c-180 -26 -337 -177 -375 -357 -8 -37 -11 -576 -11 -1833
0 -1974 -4 -1858 66 -1976 66 -112 181 -191 314 -216 l60 -12 0 -118 0 -119
39 -39 39 -39 186 0 c264 0 268 3 276 195 l5 120 298 3 297 2 0 -117 c1 -129
8 -152 56 -184 26 -17 48 -19 212 -19 152 0 189 3 212 16 50 30 60 61 60 186
l0 113 60 12 c185 35 333 177 370 356 7 36 10 593 8 1862 l-3 1810 -22 57
c-61 161 -200 273 -368 298 -86 12 -1694 11 -1779 -1z m1779 -250 c52 -15 119
-82 134 -134 7 -25 11 -157 11 -362 l0 -323 -1030 0 -1030 0 0 333 c0 367 2
379 68 440 61 58 34 56 957 57 593 0 862 -3 890 -11z m145 -1169 l0 -100
-1030 0 -1030 0 0 100 0 100 1030 0 1030 0 0 -100z m0 -1452 l0 -1103 -24 -52
c-17 -36 -38 -60 -67 -80 l-43 -28 -896 0 -896 0 -43 28 c-29 20 -50 44 -67
80 l-24 52 0 1103 0 1102 1030 0 1030 0 0 -1102z m-1580 -1553 c0 -28 -4 -35
-20 -35 -16 0 -20 7 -20 35 0 28 4 35 20 35 16 0 20 -7 20 -35z m1140 0 c0
-28 -4 -35 -20 -35 -16 0 -20 7 -20 35 0 28 4 35 20 35 16 0 20 -7 20 -35z"/>
<path d="M5083 7841 c-39 -25 -92 -100 -109 -159 -32 -107 -8 -208 70 -288 47
-49 56 -54 95 -54 115 0 169 105 101 198 -37 51 -37 72 -4 112 31 36 41 103
22 140 -19 34 -75 70 -112 70 -17 0 -45 -9 -63 -19z"/>
<path d="M5078 6353 c-33 -23 -58 -55 -89 -113 -20 -37 -24 -60 -24 -130 0
-76 3 -91 30 -139 54 -98 127 -137 198 -107 78 32 99 130 43 196 -32 39 -33
62 -2 103 32 42 40 79 27 120 -17 52 -53 79 -108 84 -35 3 -55 -1 -75 -14z"/>
</g>
</svg>
