<?xml version="1.0" standalone="no"?>
<!DOCTYPE svg PUBLIC "-//W3C//DTD SVG 20010904//EN"
 "http://www.w3.org/TR/2001/REC-SVG-20010904/DTD/svg10.dtd">
<svg version="1.0" xmlns="http://www.w3.org/2000/svg"
 width="1181.000000pt" height="1181.000000pt" viewBox="0 0 1181.000000 1181.000000"
 preserveAspectRatio="xMidYMid meet">

<g transform="translate(0.000000,1181.000000) scale(0.100000,-0.100000)"
fill="#000000" stroke="none">
<path d="M5559 8233 c-12 -16 -114 -172 -228 -348 l-206 -320 -205 -5 c-220
-5 -233 -8 -293 -64 -15 -14 -37 -45 -47 -68 -18 -41 -20 -70 -20 -513 l0
-470 -170 -510 c-94 -281 -180 -553 -192 -605 -19 -87 -22 -135 -28 -575 l-6
-480 -116 -342 c-113 -332 -116 -343 -99 -364 36 -44 48 -19 175 347 l120 349
7 490 c8 591 -9 496 197 1105 l110 325 1 -423 1 -423 -126 -324 c-69 -179
-124 -335 -122 -347 2 -18 10 -23 32 -23 l30 0 216 558 c119 307 221 566 227
575 26 41 200 -94 252 -196 30 -58 51 -146 51 -212 0 -71 -19 -138 -114 -389
-42 -113 -76 -210 -76 -216 0 -6 25 -35 56 -65 138 -135 244 -316 288 -491 24
-94 43 -126 70 -116 28 11 29 36 7 128 -24 98 -65 201 -111 279 l-29 50 494 0
c272 0 495 -1 495 -3 0 -1 -72 -217 -159 -480 -88 -263 -158 -484 -155 -492 8
-19 32 -27 52 -16 11 6 72 175 180 500 l163 490 702 3 702 3 55 30 c33 18 66
47 85 73 l30 44 0 1356 0 1357 -28 42 c-15 24 -46 55 -69 70 l-41 28 -359 3
-358 3 -519 339 c-286 186 -530 344 -541 350 -31 17 -44 8 -85 -59 -21 -34
-42 -61 -46 -61 -5 0 -54 29 -111 65 -56 36 -105 65 -109 65 -4 0 -17 -12 -30
-27z m203 -176 c0 -14 -555 -869 -567 -873 -6 -3 -60 -3 -119 -2 l-107 3 318
491 317 491 79 -51 c43 -28 79 -55 79 -59z m896 -364 c395 -256 733 -477 752
-490 l35 -23 -186 0 -186 0 1 37 1 37 -395 258 c-217 141 -401 257 -408 258
-7 0 -36 -24 -65 -53 -88 -91 -206 -111 -320 -56 -44 22 -48 22 -64 6 -9 -9
-85 -121 -168 -249 l-151 -233 -102 -3 c-56 -1 -102 0 -102 4 0 13 625 974
633 974 5 0 331 -210 725 -467z m91 -318 c171 -111 241 -163 239 -174 -3 -14
-68 -16 -696 -19 -380 -1 -692 0 -692 3 0 3 57 94 127 203 70 108 127 198 128
199 0 1 30 -7 65 -18 107 -34 231 -7 320 69 l44 39 112 -72 c61 -40 220 -144
353 -230z m-1701 77 c-13 -21 -57 -91 -98 -155 l-75 -117 -58 0 c-73 0 -117
18 -152 64 -56 74 -30 180 55 224 40 20 58 22 198 22 l153 0 -23 -38z m2652
16 c76 -40 85 -60 88 -213 l4 -134 -45 24 c-26 15 -69 28 -105 31 -57 6 -73
15 -294 160 l-233 154 270 0 c261 0 272 -1 315 -22z m-3017 -340 l42 -23 1482
-5 c1477 -5 1482 -5 1509 -26 15 -11 37 -33 48 -48 20 -26 21 -42 24 -362 l3
-334 -334 0 c-223 0 -345 -4 -368 -11 -51 -18 -97 -55 -122 -102 -21 -40 -22
-55 -25 -317 -4 -319 2 -362 56 -422 67 -75 56 -73 445 -76 l348 -3 -3 -332
c-3 -329 -3 -332 -26 -365 -52 -72 55 -67 -1347 -70 l-1259 -2 -72 77 -72 77
30 80 c143 385 141 377 146 475 3 57 0 116 -8 150 -30 135 -135 274 -252 336
l-58 30 0 480 c0 264 -3 490 -6 502 -7 27 -40 39 -59 23 -13 -11 -15 -85 -15
-495 0 -385 -3 -484 -13 -488 -7 -3 -39 -74 -72 -158 -32 -85 -62 -158 -67
-164 -4 -5 -8 352 -8 793 0 441 2 802 5 802 3 0 25 -10 48 -22z m3107 -1263
l0 -386 -345 3 -345 3 -37 38 -38 37 -3 289 c-3 323 0 344 60 381 31 19 50 20
371 20 l337 0 0 -385z"/>
<path d="M4794 7006 c-3 -8 -4 -23 -2 -33 3 -15 14 -18 73 -18 l70 0 0 30 0
30 -68 3 c-52 2 -69 0 -73 -12z"/>
<path d="M5111 7001 c-7 -13 -7 -23 2 -35 18 -24 205 -19 220 6 8 12 7 21 -2
32 -11 13 -34 16 -112 16 -86 0 -100 -2 -108 -19z"/>
<path d="M5509 7004 c-9 -11 -10 -20 -2 -32 15 -25 202 -30 220 -6 9 12 9 22
2 35 -8 17 -22 19 -108 19 -78 0 -101 -3 -112 -16z"/>
<path d="M5904 7006 c-3 -8 -4 -23 -2 -33 3 -16 15 -18 113 -18 l110 0 0 30 0
30 -108 3 c-87 2 -108 0 -113 -12z"/>
<path d="M6299 7004 c-9 -11 -10 -20 -2 -32 8 -14 28 -17 113 -17 85 0 105 3
113 17 8 12 7 21 -2 32 -11 13 -34 16 -111 16 -77 0 -100 -3 -111 -16z"/>
<path d="M6695 7001 c-14 -44 1 -51 111 -51 89 0 105 3 113 18 6 11 6 24 0 35
-9 14 -26 17 -114 17 -92 0 -104 -2 -110 -19z"/>
<path d="M7094 7006 c-3 -8 -4 -23 -2 -33 3 -16 16 -18 110 -21 107 -3 107 -3
114 22 3 14 3 30 -1 35 -4 7 -48 11 -111 11 -82 0 -106 -3 -110 -14z"/>
<path d="M7489 7004 c-19 -23 1 -48 40 -52 26 -3 31 -7 31 -31 0 -31 16 -51
42 -51 23 0 38 30 38 75 0 63 -13 75 -79 75 -41 0 -62 -5 -72 -16z"/>
<path d="M7567 6713 c-4 -3 -7 -47 -7 -98 0 -94 8 -115 42 -115 27 0 38 32 38
110 0 39 -5 80 -10 91 -10 18 -50 26 -63 12z"/>
<path d="M7567 5223 c-4 -3 -7 -47 -7 -98 0 -94 8 -115 42 -115 27 0 38 32 38
110 0 39 -5 80 -10 91 -10 18 -50 26 -63 12z"/>
<path d="M7567 4853 c-4 -3 -7 -19 -7 -35 0 -23 -4 -28 -24 -28 -14 0 -32 -7
-40 -16 -19 -18 -19 -20 -6 -45 9 -15 22 -19 70 -19 67 0 80 12 80 75 0 20 -5
45 -10 56 -10 18 -50 26 -63 12z"/>
<path d="M5116 4771 c-14 -15 -15 -24 -6 -40 10 -19 20 -21 108 -21 101 0 122
7 122 42 0 28 -33 38 -123 38 -70 0 -87 -3 -101 -19z"/>
<path d="M5518 4779 c-21 -12 -23 -40 -6 -57 8 -8 47 -12 110 -12 88 0 98 2
108 21 9 16 8 25 -6 40 -14 16 -31 19 -103 19 -47 0 -94 -5 -103 -11z"/>
<path d="M5918 4779 c-22 -13 -23 -55 -2 -63 29 -11 189 -7 202 6 18 18 14 46
-7 58 -25 13 -171 13 -193 -1z"/>
<path d="M6306 4774 c-19 -18 -19 -20 -6 -45 10 -17 22 -19 108 -19 97 0 122
8 122 36 0 33 -31 44 -120 44 -67 0 -92 -4 -104 -16z"/>
<path d="M6708 4779 c-21 -12 -23 -40 -6 -57 13 -13 173 -17 202 -6 22 9 20
51 -3 64 -25 13 -171 13 -193 -1z"/>
<path d="M7108 4779 c-22 -13 -23 -55 -2 -63 29 -11 189 -7 202 6 18 18 14 46
-7 58 -25 13 -171 13 -193 -1z"/>
<path d="M7215 6041 c-76 -35 -115 -95 -115 -177 0 -120 118 -214 232 -184
113 30 177 151 137 257 -24 64 -109 123 -179 123 -19 0 -53 -9 -75 -19z m151
-95 c29 -29 34 -41 34 -81 0 -38 -5 -52 -29 -75 -16 -16 -40 -32 -55 -36 -38
-9 -74 3 -107 36 -24 23 -29 37 -29 75 0 40 5 52 34 81 28 28 42 34 76 34 34
0 48 -6 76 -34z"/>
</g>
</svg>
