<?xml version="1.0" standalone="no"?>
<!DOCTYPE svg PUBLIC "-//W3C//DTD SVG 20010904//EN"
 "http://www.w3.org/TR/2001/REC-SVG-20010904/DTD/svg10.dtd">
<svg version="1.0" xmlns="http://www.w3.org/2000/svg"
 width="1181.000000pt" height="1181.000000pt" viewBox="0 0 1181.000000 1181.000000"
 preserveAspectRatio="xMidYMid meet">

<g transform="translate(0.000000,1181.000000) scale(0.100000,-0.100000)"
fill="#000000" stroke="none">
<path d="M5754 8250 c-845 -59 -1582 -550 -1954 -1302 -169 -341 -242 -658
-242 -1043 1 -226 20 -380 72 -586 119 -471 397 -903 794 -1234 171 -143 471
-311 691 -389 130 -45 311 -90 455 -113 160 -25 519 -25 680 0 669 103 1251
474 1624 1032 92 138 216 394 270 555 49 149 89 333 105 482 24 216 9 523 -34
733 -164 789 -733 1446 -1497 1729 -280 104 -659 157 -964 136z m466 -894
c279 -62 497 -218 608 -435 60 -118 76 -186 76 -326 -1 -136 -17 -201 -77
-307 -60 -106 -116 -167 -346 -377 -292 -267 -300 -278 -356 -496 -32 -126
-60 -169 -128 -201 -126 -58 -276 -8 -329 111 -19 41 -22 67 -22 150 0 121 14
183 65 294 55 119 122 196 345 397 204 184 240 224 281 311 26 57 33 157 14
221 -28 94 -122 195 -219 234 -49 20 -74 23 -187 22 -113 0 -138 -3 -190 -23
-112 -45 -198 -157 -272 -357 -20 -54 -46 -115 -59 -135 -123 -196 -419 -137
-465 93 -22 107 37 295 139 444 133 196 397 352 667 394 83 13 376 4 455 -14z
m-182 -2365 c179 -92 217 -335 75 -477 -132 -133 -387 -95 -472 71 -38 74 -42
184 -9 257 32 69 96 132 161 158 69 27 183 23 245 -9z"/>
</g>
</svg>
