<?xml version="1.0" standalone="no"?>
<!DOCTYPE svg PUBLIC "-//W3C//DTD SVG 20010904//EN"
 "http://www.w3.org/TR/2001/REC-SVG-20010904/DTD/svg10.dtd">
<svg version="1.0" xmlns="http://www.w3.org/2000/svg"
 width="1181.000000pt" height="1181.000000pt" viewBox="0 0 1181.000000 1181.000000"
 preserveAspectRatio="xMidYMid meet">

<g transform="translate(0.000000,1181.000000) scale(0.100000,-0.100000)"
fill="#000000" stroke="none">
<path d="M7200 7340 l0 -930 -177 2 -177 3 -75 96 c-301 384 -348 434 -449
482 l-67 32 -405 5 c-498 6 -614 0 -684 -34 -91 -44 -95 -51 -341 -511 -60
-111 -73 -165 -55 -219 33 -100 191 -129 261 -50 9 11 68 117 130 237 l112
217 179 0 c99 0 178 -3 176 -7 -1 -5 -54 -136 -116 -292 -62 -156 -122 -302
-134 -324 -16 -32 -24 -85 -39 -256 -34 -389 -59 -626 -69 -648 -9 -21 -10
-22 -392 -25 -339 -3 -387 -5 -414 -20 -48 -26 -94 -68 -118 -107 -26 -43 -91
-220 -83 -228 4 -3 280 -5 615 -5 641 0 658 1 700 45 43 46 52 93 87 446 19
190 37 362 41 381 l6 35 31 -60 c17 -33 92 -188 167 -345 429 -892 461 -954
503 -997 63 -63 121 -76 315 -67 83 4 152 9 152 13 0 3 -84 177 -186 386 -102
209 -243 502 -314 650 -70 149 -164 343 -208 433 l-81 163 24 62 c13 34 34 91
48 127 13 36 59 148 102 249 74 174 79 182 94 163 9 -11 72 -88 140 -171 111
-135 131 -155 185 -181 78 -38 161 -50 359 -50 l157 0 0 -1245 0 -1245 180 0
180 0 0 2360 0 2360 -180 0 -180 0 0 -930z"/>
<path d="M6205 7692 c-73 -36 -136 -99 -167 -167 -34 -76 -32 -201 5 -277 68
-140 232 -214 385 -174 111 28 184 96 227 210 56 147 -18 332 -159 401 -41 20
-74 27 -142 31 -84 5 -93 4 -149 -24z"/>
</g>
</svg>
