<?xml version="1.0" standalone="no"?>
<!DOCTYPE svg PUBLIC "-//W3C//DTD SVG 20010904//EN"
 "http://www.w3.org/TR/2001/REC-SVG-20010904/DTD/svg10.dtd">
<svg version="1.0" xmlns="http://www.w3.org/2000/svg"
 width="1024.000000pt" height="1024.000000pt" viewBox="0 0 1024.000000 1024.000000"
 preserveAspectRatio="xMidYMid meet">

<g transform="translate(0.000000,1024.000000) scale(0.100000,-0.100000)"
fill="#000000" stroke="none">
<path d="M845 9021 c-246 -72 -416 -292 -418 -541 0 -105 15 -173 60 -269 48
-101 150 -204 253 -255 146 -71 -232 -66 4388 -66 4478 0 4242 -3 4358 46 100
42 208 136 271 236 42 66 72 161 80 253 23 272 -164 531 -432 600 -53 13 -533
15 -4280 14 -3988 0 -4223 -1 -4280 -18z"/>
<path d="M925 5690 c-189 -26 -357 -145 -439 -314 -43 -90 -60 -161 -59 -257
1 -253 154 -464 398 -547 l80 -27 4225 0 4225 0 70 22 c98 31 187 87 256 161
208 222 210 560 4 781 -74 79 -140 122 -242 158 l-78 28 -4190 1 c-2305 1
-4217 -2 -4250 -6z"/>
<path d="M880 2340 c-258 -45 -454 -261 -477 -525 -23 -271 165 -532 432 -600
52 -13 538 -15 4275 -15 3737 0 4223 2 4275 15 267 68 455 329 432 600 -18
204 -134 378 -312 466 -152 75 242 69 -4400 68 -2299 -1 -4200 -5 -4225 -9z"/>
</g>
</svg>
