<?xml version="1.0" standalone="no"?>
<!DOCTYPE svg PUBLIC "-//W3C//DTD SVG 20010904//EN"
 "http://www.w3.org/TR/2001/REC-SVG-20010904/DTD/svg10.dtd">
<svg version="1.0" xmlns="http://www.w3.org/2000/svg"
 width="1181.000000pt" height="1181.000000pt" viewBox="0 0 1181.000000 1181.000000"
 preserveAspectRatio="xMidYMid meet">

<g transform="translate(0.000000,1181.000000) scale(0.100000,-0.100000)"
fill="#000000" stroke="none">
<path d="M5833 8260 c-117 -13 -223 -85 -288 -195 -106 -179 -128 -456 -60
-740 29 -123 55 -192 135 -360 109 -228 243 -586 265 -708 10 -51 21 -55 30
-9 10 54 91 300 137 417 22 55 76 179 120 275 44 96 93 215 110 264 129 385
84 797 -106 964 -49 43 -125 80 -178 87 -84 12 -104 12 -165 5z"/>
<path d="M4753 7300 c-62 -13 -113 -43 -164 -97 -76 -78 -94 -122 -94 -228 0
-81 3 -97 32 -157 44 -93 79 -142 159 -220 136 -133 268 -209 509 -294 156
-55 338 -136 459 -204 49 -28 91 -50 93 -50 1 0 -11 22 -27 48 -57 93 -168
338 -235 517 -91 244 -149 345 -273 477 -153 162 -319 237 -459 208z"/>
<path d="M6922 7295 c-103 -29 -198 -92 -302 -201 -126 -132 -188 -237 -263
-444 -81 -224 -164 -409 -246 -548 -17 -29 -28 -52 -26 -52 3 0 22 11 43 24
105 66 330 168 527 238 160 57 271 112 359 177 214 157 337 352 324 515 -3 38
-15 81 -31 111 -30 60 -112 139 -170 165 -60 26 -151 33 -215 15z"/>
<path d="M3957 6344 c-155 -33 -271 -99 -337 -191 -59 -83 -72 -134 -68 -261
3 -98 6 -114 36 -174 78 -159 260 -251 524 -265 131 -6 291 13 431 53 88 25
121 38 417 172 176 79 362 148 530 197 63 18 108 35 100 38 -8 3 -51 15 -95
27 -190 52 -427 143 -643 247 -269 128 -451 174 -691 172 -79 0 -165 -7 -204
-15z"/>
<path d="M7384 6340 c-132 -25 -278 -79 -489 -178 -196 -92 -393 -168 -556
-213 -63 -18 -121 -34 -129 -36 -8 -3 23 -16 70 -28 206 -57 419 -137 660
-250 303 -142 447 -179 700 -178 136 0 179 4 243 21 243 66 377 218 377 427
-1 123 -37 214 -120 295 -62 61 -131 100 -235 131 -104 31 -380 36 -521 9z"/>
<path d="M5630 5649 c-116 -65 -275 -135 -467 -204 -224 -82 -336 -148 -470
-278 -149 -145 -207 -262 -201 -403 4 -67 9 -90 33 -130 31 -54 93 -116 140
-141 253 -137 629 136 789 572 96 263 218 533 276 615 12 17 18 30 13 29 -4 0
-55 -27 -113 -60z"/>
<path d="M6100 5680 c42 -59 180 -359 245 -535 37 -99 85 -211 107 -250 170
-301 431 -478 633 -430 73 17 106 37 163 100 107 116 120 243 41 402 -92 186
-337 383 -569 458 -175 56 -443 174 -579 254 -28 17 -54 31 -57 31 -3 0 4 -13
16 -30z"/>
<path d="M5901 5609 c0 -3 -19 -67 -41 -142 -47 -161 -144 -414 -225 -582
-119 -250 -170 -422 -183 -610 -31 -451 139 -725 448 -725 218 0 362 129 431
385 17 64 22 109 22 230 1 252 -39 409 -183 715 -115 244 -212 507 -263 715
-2 11 -5 17 -6 14z"/>
</g>
</svg>
