<?xml version="1.0" encoding="UTF-8"?>
<!DOCTYPE svg PUBLIC "-//W3C//DTD SVG 1.1//EN" "http://www.w3.org/Graphics/SVG/1.1/DTD/svg11.dtd">
<svg xmlns="http://www.w3.org/2000/svg" version="1.1" width="1181px" height="1181px" style="shape-rendering:geometricPrecision; text-rendering:geometricPrecision; image-rendering:optimizeQuality; fill-rule:evenodd; clip-rule:evenodd" xmlns:xlink="http://www.w3.org/1999/xlink">
<g><path style="opacity:1" fill="#fefefe" d="M -0.5,-0.5 C 393.167,-0.5 786.833,-0.5 1180.5,-0.5C 1180.5,393.167 1180.5,786.833 1180.5,1180.5C 786.833,1180.5 393.167,1180.5 -0.5,1180.5C -0.5,786.833 -0.5,393.167 -0.5,-0.5 Z"/></g>
<g><path style="opacity:1" fill="#010101" d="M 648.5,685.5 C 647.957,685.56 647.624,685.893 647.5,686.5C 659.815,687.499 672.149,687.832 684.5,687.5C 695.833,732.833 707.167,778.167 718.5,823.5C 676.005,824.833 633.172,825.5 590,825.5C 546.999,825.5 504.165,825.167 461.5,824.5C 472.833,778.5 484.167,732.5 495.5,686.5C 507.838,686.667 520.171,686.5 532.5,686C 501.672,643.198 475.839,597.365 455,548.5C 433.042,483.943 447.876,429.443 499.5,385C 540.657,354.164 585.991,346.164 635.5,361C 689.396,380.562 722.229,418.395 734,474.5C 735.873,485.1 736.54,495.767 736,506.5C 732.995,525.523 727.661,543.857 720,561.5C 699.453,604.953 675.62,646.286 648.5,685.5 Z"/></g>
<g><path style="opacity:1" fill="#fdfdfd" d="M 575.5,381.5 C 630.136,378.725 670.636,401.058 697,448.5C 708.979,473.323 711.312,498.99 704,525.5C 697.041,545.086 688.708,564.086 679,582.5C 652.736,630.051 623.236,675.384 590.5,718.5C 556.282,674.433 525.782,627.766 499,578.5C 488.447,558.728 480.114,538.061 474,516.5C 467.731,466.29 485.564,427.124 527.5,399C 542.66,390.451 558.66,384.618 575.5,381.5 Z"/></g>
<g><path style="opacity:1" fill="#020202" d="M 578.5,451.5 C 613.292,448.285 635.458,463.285 645,496.5C 647.629,530.79 632.463,552.29 599.5,561C 574.879,563.939 555.712,555.105 542,534.5C 528.092,504.97 533.925,480.136 559.5,460C 565.697,456.562 572.031,453.729 578.5,451.5 Z"/></g>
<g><path style="opacity:1" fill="#fcfcfc" d="M 585.5,478.5 C 600.942,477.467 611.442,484.133 617,498.5C 619.82,519.349 610.82,531.349 590,534.5C 569.72,531.552 560.72,519.885 563,499.5C 566.881,488.447 574.381,481.447 585.5,478.5 Z"/></g>
<g><path style="opacity:1" fill="#404040" d="M 648.5,685.5 C 660.5,686.167 672.5,686.833 684.5,687.5C 672.149,687.832 659.815,687.499 647.5,686.5C 647.624,685.893 647.957,685.56 648.5,685.5 Z"/></g>
<g><path style="opacity:1" fill="#fdfdfd" d="M 683.5,797.5 C 621.158,798.163 559.158,797.496 497.5,795.5C 503.621,768.517 510.288,741.683 517.5,715C 529.167,714.333 540.833,714.333 552.5,715C 564.246,732.314 577.079,748.814 591,764.5C 604.215,748.286 617.049,731.786 629.5,715C 640.828,714.5 652.162,714.333 663.5,714.5C 670.009,742.202 676.675,769.869 683.5,797.5 Z"/></g>
<g><path style="opacity:1" fill="#7e7e7e" d="M 497.5,795.5 C 559.158,797.496 621.158,798.163 683.5,797.5C 621.336,798.499 559.002,798.832 496.5,798.5C 496.263,797.209 496.596,796.209 497.5,795.5 Z"/></g>
<g><path style="opacity:1" fill="#eeeeee" d="M 718.5,823.5 C 719.404,824.209 719.737,825.209 719.5,826.5C 633.164,826.833 546.831,826.5 460.5,825.5C 460.624,824.893 460.957,824.56 461.5,824.5C 504.165,825.167 546.999,825.5 590,825.5C 633.172,825.5 676.005,824.833 718.5,823.5 Z"/></g>
</svg>
