<?xml version="1.0" standalone="no"?>
<!DOCTYPE svg PUBLIC "-//W3C//DTD SVG 20010904//EN"
 "http://www.w3.org/TR/2001/REC-SVG-20010904/DTD/svg10.dtd">
<svg version="1.0" xmlns="http://www.w3.org/2000/svg"
 width="1181.000000pt" height="1181.000000pt" viewBox="0 0 1181.000000 1181.000000"
 preserveAspectRatio="xMidYMid meet">

<g transform="translate(0.000000,1181.000000) scale(0.100000,-0.100000)"
fill="#000000" stroke="none">
<path d="M3850 7996 c-159 -35 -277 -164 -301 -329 -12 -82 -11 -1863 1 -1946
20 -139 106 -251 234 -307 54 -23 65 -32 61 -49 -2 -11 -19 -169 -36 -352 -35
-358 -35 -372 15 -394 14 -7 35 -9 48 -6 14 4 142 94 285 201 l261 194 4 -82
c8 -150 92 -276 228 -340 l65 -31 1085 -3 1085 -3 515 -384 c556 -415 551
-412 600 -360 30 32 30 21 -10 413 -16 164 -30 307 -30 318 0 15 17 27 66 48
85 37 156 108 198 195 l31 66 0 1020 0 1020 -32 66 c-58 118 -170 200 -300
219 -37 5 -175 10 -305 10 l-237 0 -3 268 c-3 266 -3 267 -30 325 -54 114
-168 204 -289 227 -81 16 -3139 12 -3209 -4z m3246 -168 c44 -24 88 -70 110
-115 18 -37 19 -76 19 -1018 0 -942 -1 -981 -19 -1018 -25 -51 -71 -96 -121
-118 -38 -18 -96 -19 -1126 -19 l-1086 0 -69 -49 c-38 -27 -244 -180 -459
-339 -214 -159 -391 -289 -392 -288 -1 1 11 132 28 291 16 160 29 300 29 311
0 41 -32 66 -94 75 -77 10 -142 51 -181 113 l-30 49 0 991 0 991 28 47 c30 51
70 84 126 104 29 11 343 13 1621 11 1478 -2 1587 -3 1616 -19z m874 -832 c49
-26 88 -64 113 -111 l22 -40 -3 -980 c-4 -1101 2 -1024 -80 -1097 -38 -35 -63
-45 -156 -65 -24 -5 -47 -18 -59 -34 -19 -26 -19 -28 13 -323 17 -163 30 -300
28 -304 -2 -5 -190 131 -418 301 -228 170 -435 322 -459 338 l-45 29 -1083 0
c-1196 0 -1121 -4 -1192 63 -58 55 -71 96 -71 233 l0 122 169 126 168 126
1059 0 c1125 0 1106 -1 1199 48 61 31 116 84 153 144 60 100 62 125 62 821 l0
628 273 -3 c243 -3 276 -5 307 -22z"/>
<path d="M5230 7128 c-1066 -10 -1022 -7 -1036 -63 -9 -36 3 -73 29 -88 18
-12 220 -12 1217 -5 1130 8 1196 10 1220 27 35 25 40 84 9 117 -26 28 166 26
-1439 12z"/>
<path d="M4752 6380 l-484 -5 -19 -24 c-26 -32 -24 -77 6 -106 l24 -25 243 1
c900 1 2117 18 2136 28 37 20 45 89 15 124 -15 16 -61 17 -727 15 -391 -2
-929 -5 -1194 -8z"/>
</g>
</svg>
