<?xml version="1.0" encoding="UTF-8"?>
<!DOCTYPE svg PUBLIC "-//W3C//DTD SVG 1.1//EN" "http://www.w3.org/Graphics/SVG/1.1/DTD/svg11.dtd">
<svg xmlns="http://www.w3.org/2000/svg" version="1.1" width="1181px" height="1181px" style="shape-rendering:geometricPrecision; text-rendering:geometricPrecision; image-rendering:optimizeQuality; fill-rule:evenodd; clip-rule:evenodd" xmlns:xlink="http://www.w3.org/1999/xlink">
<g><path style="opacity:1" fill="#fefefe" d="M -0.5,-0.5 C 393.167,-0.5 786.833,-0.5 1180.5,-0.5C 1180.5,393.167 1180.5,786.833 1180.5,1180.5C 786.833,1180.5 393.167,1180.5 -0.5,1180.5C -0.5,786.833 -0.5,393.167 -0.5,-0.5 Z"/></g>
<g><path style="opacity:1" fill="#070707" d="M 720.5,815.5 C 721.494,806.348 721.827,797.015 721.5,787.5C 648.331,787.167 575.331,787.501 502.5,788.5C 502.334,797.506 502.5,806.506 503,815.5C 520.169,828.793 523.169,844.793 512,863.5C 499.123,876.669 484.623,878.836 468.5,870C 454.183,856.839 451.683,841.672 461,824.5C 464.035,821.13 467.368,818.13 471,815.5C 471.667,783.167 471.667,750.833 471,718.5C 461.528,682.281 452.528,645.947 444,609.5C 433.657,602.143 431.324,592.81 437,581.5C 439.416,578.577 442.25,576.243 445.5,574.5C 457.167,574.5 468.833,574.5 480.5,574.5C 480.737,573.209 480.404,572.209 479.5,571.5C 467.869,506.286 489.869,456.12 545.5,421C 575.739,404.675 607.739,400.009 641.5,407C 697.08,422.579 731.58,458.413 745,514.5C 746.163,523.137 746.996,531.804 747.5,540.5C 746.818,551.92 745.485,563.253 743.5,574.5C 747.767,574.797 751.934,574.464 756,573.5C 763.778,550.166 771.944,526.999 780.5,504C 803.167,503.333 825.833,503.333 848.5,504C 860.991,509.161 864.491,517.995 859,530.5C 856.011,534.491 852.178,537.324 847.5,539C 833.259,539.176 819.092,539.676 805,540.5C 796.667,562.833 788.333,585.167 780,607.5C 771.472,643.947 762.472,680.281 753,716.5C 752.167,749.838 752.333,783.172 753.5,816.5C 767.368,826.306 771.535,839.306 766,855.5C 758.507,871.332 746.007,877.832 728.5,875C 710.88,868.277 703.047,855.444 705,836.5C 707.754,827.598 712.921,820.598 720.5,815.5 Z"/></g>
<g><path style="opacity:1" fill="#fdfdfd" d="M 735.5,573.5 C 695.33,573.832 655.33,573.499 615.5,572.5C 640.461,545.037 665.627,517.703 691,490.5C 691.667,489.167 691.667,487.833 691,486.5C 683.884,478.542 676.051,471.542 667.5,465.5C 662.916,468.578 658.749,472.244 655,476.5C 631.833,501.667 608.667,526.833 585.5,552C 584.551,552.617 583.718,552.451 583,551.5C 576.876,540.749 570.376,530.249 563.5,520C 562.167,519.333 560.833,519.333 559.5,520C 551.766,525.396 543.766,530.396 535.5,535C 533.789,536.133 533.289,537.633 534,539.5C 541.096,550.695 547.929,562.028 554.5,573.5C 532.092,573.822 509.758,573.489 487.5,572.5C 475.108,508.795 496.442,459.962 551.5,426C 589.857,407.388 628.524,406.721 667.5,424C 712.83,448.544 736.83,486.711 739.5,538.5C 739.627,550.36 738.293,562.026 735.5,573.5 Z"/></g>
<g><path style="opacity:1" fill="#fbfbfb" d="M 785.5,510.5 C 793.833,510.5 802.167,510.5 810.5,510.5C 810.5,517.5 810.5,524.5 810.5,531.5C 807.482,531.335 804.482,531.502 801.5,532C 791.537,555.1 782.537,578.6 774.5,602.5C 665.166,602.667 555.833,602.5 446.5,602C 439.833,595.333 439.833,588.667 446.5,582C 551.167,581.667 655.833,581.333 760.5,581C 769.255,557.654 777.589,534.154 785.5,510.5 Z"/></g>
<g><path style="opacity:1" fill="#bcbcbc" d="M 479.5,571.5 C 480.404,572.209 480.737,573.209 480.5,574.5C 468.833,574.5 457.167,574.5 445.5,574.5C 457.037,574.159 468.37,573.159 479.5,571.5 Z"/></g>
<g><path style="opacity:1" fill="#bababa" d="M 487.5,572.5 C 509.758,573.489 532.092,573.822 554.5,573.5C 544.241,574.177 533.241,574.511 521.5,574.5C 509.813,574.499 498.48,573.832 487.5,572.5 Z"/></g>
<g><path style="opacity:1" fill="#bdbdbd" d="M 615.5,572.5 C 655.33,573.499 695.33,573.832 735.5,573.5C 695.331,574.831 654.998,574.831 614.5,573.5C 614.624,572.893 614.957,572.56 615.5,572.5 Z"/></g>
<g><path style="opacity:1" fill="#414141" d="M 490.5,610.5 C 477.456,609.853 464.789,610.52 452.5,612.5C 451.596,611.791 451.263,610.791 451.5,609.5C 464.677,609.171 477.677,609.505 490.5,610.5 Z"/></g>
<g><path style="opacity:1" fill="#fbfbfb" d="M 490.5,610.5 C 490.5,620.5 490.5,630.5 490.5,640.5C 479.752,640.809 469.085,640.476 458.5,639.5C 456.342,630.534 454.342,621.534 452.5,612.5C 464.789,610.52 477.456,609.853 490.5,610.5 Z"/></g>
<g><path style="opacity:1" fill="#fcfcfc" d="M 497.5,610.5 C 510.833,610.5 524.167,610.5 537.5,610.5C 537.5,620.5 537.5,630.5 537.5,640.5C 524.167,640.5 510.833,640.5 497.5,640.5C 497.5,630.5 497.5,620.5 497.5,610.5 Z"/></g>
<g><path style="opacity:1" fill="#fcfcfc" d="M 544.5,610.5 C 557.833,610.5 571.167,610.5 584.5,610.5C 584.5,620.5 584.5,630.5 584.5,640.5C 571.167,640.5 557.833,640.5 544.5,640.5C 544.5,630.5 544.5,620.5 544.5,610.5 Z"/></g>
<g><path style="opacity:1" fill="#fefffe" d="M 592.5,610.5 C 605.5,610.5 618.5,610.5 631.5,610.5C 631.5,620.5 631.5,630.5 631.5,640.5C 618.5,640.5 605.5,640.5 592.5,640.5C 592.5,630.5 592.5,620.5 592.5,610.5 Z"/></g>
<g><path style="opacity:1" fill="#fbfbfb" d="M 638.5,610.5 C 651.833,610.5 665.167,610.5 678.5,610.5C 678.5,620.5 678.5,630.5 678.5,640.5C 665.167,640.5 651.833,640.5 638.5,640.5C 638.5,630.5 638.5,620.5 638.5,610.5 Z"/></g>
<g><path style="opacity:1" fill="#fefffe" d="M 686.5,610.5 C 699.5,610.5 712.5,610.5 725.5,610.5C 725.5,620.5 725.5,630.5 725.5,640.5C 712.5,640.5 699.5,640.5 686.5,640.5C 686.5,630.5 686.5,620.5 686.5,610.5 Z"/></g>
<g><path style="opacity:1" fill="#fdfdfd" d="M 733.5,610.5 C 746.184,610.168 758.851,610.501 771.5,611.5C 769.482,620.905 767.149,630.239 764.5,639.5C 754.188,640.499 743.855,640.832 733.5,640.5C 733.5,630.5 733.5,620.5 733.5,610.5 Z"/></g>
<g><path style="opacity:1" fill="#3d3d3d" d="M 458.5,639.5 C 469.085,640.476 479.752,640.809 490.5,640.5C 485.344,641.166 480.011,641.499 474.5,641.5C 468.789,641.495 463.456,640.828 458.5,639.5 Z"/></g>
<g><path style="opacity:1" fill="#575757" d="M 592.5,610.5 C 592.5,620.5 592.5,630.5 592.5,640.5C 605.5,640.5 618.5,640.5 631.5,640.5C 618.344,641.496 605.01,641.829 591.5,641.5C 591.172,630.986 591.506,620.653 592.5,610.5 Z"/></g>
<g><path style="opacity:1" fill="#424242" d="M 733.5,648.5 C 742.986,647.506 752.652,647.173 762.5,647.5C 762.737,648.791 762.404,649.791 761.5,650.5C 752.56,648.528 743.227,647.861 733.5,648.5 Z"/></g>
<g><path style="opacity:1" fill="#fbfbfb" d="M 461.5,648.5 C 471.167,648.5 480.833,648.5 490.5,648.5C 490.5,658.5 490.5,668.5 490.5,678.5C 483.167,678.5 475.833,678.5 468.5,678.5C 466.167,668.5 463.833,658.5 461.5,648.5 Z"/></g>
<g><path style="opacity:1" fill="#fcfcfc" d="M 497.5,648.5 C 510.833,648.5 524.167,648.5 537.5,648.5C 537.5,658.5 537.5,668.5 537.5,678.5C 524.167,678.5 510.833,678.5 497.5,678.5C 497.5,668.5 497.5,658.5 497.5,648.5 Z"/></g>
<g><path style="opacity:1" fill="#fcfcfc" d="M 544.5,648.5 C 557.833,648.5 571.167,648.5 584.5,648.5C 584.5,658.5 584.5,668.5 584.5,678.5C 571.167,678.5 557.833,678.5 544.5,678.5C 544.5,668.5 544.5,658.5 544.5,648.5 Z"/></g>
<g><path style="opacity:1" fill="#fcfcfc" d="M 591.5,648.5 C 604.833,648.5 618.167,648.5 631.5,648.5C 631.5,658.5 631.5,668.5 631.5,678.5C 618.167,678.5 604.833,678.5 591.5,678.5C 591.5,668.5 591.5,658.5 591.5,648.5 Z"/></g>
<g><path style="opacity:1" fill="#fbfbfb" d="M 638.5,648.5 C 651.833,648.5 665.167,648.5 678.5,648.5C 678.5,658.5 678.5,668.5 678.5,678.5C 665.167,678.5 651.833,678.5 638.5,678.5C 638.5,668.5 638.5,658.5 638.5,648.5 Z"/></g>
<g><path style="opacity:1" fill="#fefffe" d="M 686.5,648.5 C 699.5,648.5 712.5,648.5 725.5,648.5C 725.5,658.5 725.5,668.5 725.5,678.5C 712.5,678.5 699.5,678.5 686.5,678.5C 686.5,668.5 686.5,658.5 686.5,648.5 Z"/></g>
<g><path style="opacity:1" fill="#fcfcfc" d="M 733.5,648.5 C 743.227,647.861 752.56,648.528 761.5,650.5C 759.5,659.833 757.5,669.167 755.5,678.5C 748.167,678.5 740.833,678.5 733.5,678.5C 733.5,668.5 733.5,658.5 733.5,648.5 Z"/></g>
<g><path style="opacity:1" fill="#fdfdfd" d="M 470.5,686.5 C 476.833,686.5 483.167,686.5 489.5,686.5C 489.5,696.5 489.5,706.5 489.5,716.5C 485.5,716.5 481.5,716.5 477.5,716.5C 475.792,706.336 473.459,696.336 470.5,686.5 Z"/></g>
<g><path style="opacity:1" fill="#a4a4a4" d="M 470.5,686.5 C 476.979,685.509 483.646,685.176 490.5,685.5C 490.828,696.014 490.494,706.347 489.5,716.5C 489.5,706.5 489.5,696.5 489.5,686.5C 483.167,686.5 476.833,686.5 470.5,686.5 Z"/></g>
<g><path style="opacity:1" fill="#acacac" d="M 537.5,686.5 C 524.5,686.5 511.5,686.5 498.5,686.5C 498.5,696.5 498.5,706.5 498.5,716.5C 497.506,706.347 497.172,696.014 497.5,685.5C 511.01,685.171 524.344,685.504 537.5,686.5 Z"/></g>
<g><path style="opacity:1" fill="#fdfdfd" d="M 537.5,686.5 C 537.5,696.5 537.5,706.5 537.5,716.5C 524.5,716.5 511.5,716.5 498.5,716.5C 498.5,706.5 498.5,696.5 498.5,686.5C 511.5,686.5 524.5,686.5 537.5,686.5 Z"/></g>
<g><path style="opacity:1" fill="#9a9a9a" d="M 584.5,686.5 C 571.5,686.5 558.5,686.5 545.5,686.5C 545.5,696.5 545.5,706.5 545.5,716.5C 544.506,706.347 544.172,696.014 544.5,685.5C 558.01,685.171 571.344,685.504 584.5,686.5 Z"/></g>
<g><path style="opacity:1" fill="#fefefe" d="M 584.5,686.5 C 584.5,696.5 584.5,706.5 584.5,716.5C 571.5,716.5 558.5,716.5 545.5,716.5C 545.5,706.5 545.5,696.5 545.5,686.5C 558.5,686.5 571.5,686.5 584.5,686.5 Z"/></g>
<g><path style="opacity:1" fill="#8d8d8d" d="M 631.5,686.5 C 618.5,686.5 605.5,686.5 592.5,686.5C 592.5,696.5 592.5,706.5 592.5,716.5C 591.506,706.347 591.172,696.014 591.5,685.5C 605.01,685.171 618.344,685.504 631.5,686.5 Z"/></g>
<g><path style="opacity:1" fill="#fefffe" d="M 631.5,686.5 C 631.5,696.5 631.5,706.5 631.5,716.5C 618.5,716.5 605.5,716.5 592.5,716.5C 592.5,706.5 592.5,696.5 592.5,686.5C 605.5,686.5 618.5,686.5 631.5,686.5 Z"/></g>
<g><path style="opacity:1" fill="#f7f7f7" d="M 639.5,685.5 C 652.5,685.5 665.5,685.5 678.5,685.5C 678.5,695.833 678.5,706.167 678.5,716.5C 665.167,716.5 651.833,716.5 638.5,716.5C 638.192,706.085 638.525,695.751 639.5,685.5 Z"/></g>
<g><path style="opacity:1" fill="#fafafa" d="M 686.5,685.5 C 699.5,685.5 712.5,685.5 725.5,685.5C 725.5,695.833 725.5,706.167 725.5,716.5C 712.5,716.5 699.5,716.5 686.5,716.5C 686.5,706.167 686.5,695.833 686.5,685.5 Z"/></g>
<g><path style="opacity:1" fill="#f8f8f8" d="M 733.5,685.5 C 739.833,685.5 746.167,685.5 752.5,685.5C 750.327,695.859 747.994,706.192 745.5,716.5C 741.5,716.5 737.5,716.5 733.5,716.5C 733.5,706.167 733.5,695.833 733.5,685.5 Z"/></g>
<g><path style="opacity:1" fill="#7f7f7f" d="M 502.5,724.5 C 575.331,723.501 648.331,723.167 721.5,723.5C 721.828,734.679 721.495,745.679 720.5,756.5C 720.5,745.833 720.5,735.167 720.5,724.5C 647.833,724.5 575.167,724.5 502.5,724.5 Z"/></g>
<g><path style="opacity:1" fill="#9a9a9a" d="M 494.5,724.5 C 489.5,724.5 484.5,724.5 479.5,724.5C 478.841,753.853 479.508,782.853 481.5,811.5C 480.791,812.404 479.791,812.737 478.5,812.5C 478.5,782.833 478.5,753.167 478.5,723.5C 484.026,723.179 489.36,723.512 494.5,724.5 Z"/></g>
<g><path style="opacity:1" fill="#fefefe" d="M 495.5,782.5 C 494.506,791.986 494.173,801.652 494.5,811.5C 493.5,811.5 492.5,811.5 491.5,811.5C 488.167,811.5 484.833,811.5 481.5,811.5C 479.508,782.853 478.841,753.853 479.5,724.5C 484.5,724.5 489.5,724.5 494.5,724.5C 494.333,736.838 494.5,749.171 495,761.5C 495.374,762.416 495.874,763.25 496.5,764C 573.167,764.667 649.833,764.667 726.5,764C 727,763.5 727.5,763 728,762.5C 728.5,749.504 728.667,736.504 728.5,723.5C 733.833,723.5 739.167,723.5 744.5,723.5C 744.5,753.167 744.5,782.833 744.5,812.5C 739.213,811.658 733.88,811.324 728.5,811.5C 728.666,801.828 728.5,792.161 728,782.5C 727.5,782 727,781.5 726.5,781C 649.833,780.333 573.167,780.333 496.5,781C 495.944,781.383 495.611,781.883 495.5,782.5 Z"/></g>
<g><path style="opacity:1" fill="#fefffe" d="M 502.5,724.5 C 575.167,724.5 647.833,724.5 720.5,724.5C 720.5,735.167 720.5,745.833 720.5,756.5C 647.833,756.5 575.167,756.5 502.5,756.5C 502.5,745.833 502.5,735.167 502.5,724.5 Z"/></g>
<g><path style="opacity:1" fill="#676767" d="M 495.5,782.5 C 495.5,792.5 495.5,802.5 495.5,812.5C 493.901,812.768 492.568,812.434 491.5,811.5C 492.5,811.5 493.5,811.5 494.5,811.5C 494.173,801.652 494.506,791.986 495.5,782.5 Z"/></g>
<g><path style="opacity:1" fill="#7f7f7f" d="M 502.5,788.5 C 575.331,787.501 648.331,787.167 721.5,787.5C 721.827,797.015 721.494,806.348 720.5,815.5C 720.5,806.5 720.5,797.5 720.5,788.5C 647.833,788.5 575.167,788.5 502.5,788.5 Z"/></g>
<g><path style="opacity:1" fill="#f5f5f5" d="M 484.5,835.5 C 492.149,835.314 495.315,838.981 494,846.5C 489.239,851.812 484.572,851.812 480,846.5C 478.776,841.626 480.276,837.959 484.5,835.5 Z"/></g>
<g><path style="opacity:1" fill="#eeeeee" d="M 733.5,835.5 C 738.558,834.717 742.058,836.717 744,841.5C 743.807,849.367 739.974,852.2 732.5,850C 727.147,844.871 727.48,840.038 733.5,835.5 Z"/></g>
</svg>
