<?xml version="1.0" encoding="UTF-8"?>
<!DOCTYPE svg PUBLIC "-//W3C//DTD SVG 1.1//EN" "http://www.w3.org/Graphics/SVG/1.1/DTD/svg11.dtd">
<svg xmlns="http://www.w3.org/2000/svg" version="1.1" width="1181px" height="1181px" style="shape-rendering:geometricPrecision; text-rendering:geometricPrecision; image-rendering:optimizeQuality; fill-rule:evenodd; clip-rule:evenodd" xmlns:xlink="http://www.w3.org/1999/xlink">
<g><path style="opacity:1" fill="#fefefe" d="M -0.5,-0.5 C 393.167,-0.5 786.833,-0.5 1180.5,-0.5C 1180.5,393.167 1180.5,786.833 1180.5,1180.5C 786.833,1180.5 393.167,1180.5 -0.5,1180.5C -0.5,786.833 -0.5,393.167 -0.5,-0.5 Z"/></g>
<g><path style="opacity:1" fill="#020202" d="M 620.5,814.5 C 620.5,807.5 620.5,800.5 620.5,793.5C 600.5,793.5 580.5,793.5 560.5,793.5C 560.5,800.5 560.5,807.5 560.5,814.5C 560.181,820.309 557.181,823.809 551.5,825C 539.167,825.667 526.833,825.667 514.5,825C 510.915,823.084 508.415,820.251 507,816.5C 506.5,808.841 506.334,801.174 506.5,793.5C 481.964,791.132 467.464,777.799 463,753.5C 462.333,632.833 462.333,512.167 463,391.5C 468.255,371.245 481.088,358.745 501.5,354C 560.5,353.333 619.5,353.333 678.5,354C 697.887,357.725 710.72,368.892 717,387.5C 718.655,509.471 718.989,631.471 718,753.5C 713.563,777.77 699.063,791.104 674.5,793.5C 674.666,801.174 674.5,808.841 674,816.5C 673.021,819.625 671.187,822.125 668.5,824C 655.236,825.611 641.903,825.944 628.5,825C 623.547,823.269 620.881,819.769 620.5,814.5 Z"/></g>
<g><path style="opacity:1" fill="#fdfdfd" d="M 503.5,378.5 C 562.559,378.012 621.559,378.512 680.5,380C 686.82,382.986 690.987,387.819 693,394.5C 693.5,416.831 693.667,439.164 693.5,461.5C 624.833,461.5 556.167,461.5 487.5,461.5C 487.333,438.831 487.5,416.164 488,393.5C 491.106,386.225 496.272,381.225 503.5,378.5 Z"/></g>
<g><path style="opacity:1" fill="#040404" d="M 509.5,394.5 C 521.229,393.731 526.729,399.065 526,410.5C 523.699,413.788 521.866,417.288 520.5,421C 522.181,424.187 524.014,427.354 526,430.5C 526.796,444.032 520.629,448.865 507.5,445C 493.281,431.49 491.781,416.657 503,400.5C 505.063,398.266 507.229,396.266 509.5,394.5 Z"/></g>
<g><path style="opacity:1" fill="#fefefe" d="M 487.5,486.5 C 556.167,486.5 624.833,486.5 693.5,486.5C 693.5,493.167 693.5,499.833 693.5,506.5C 624.833,506.5 556.167,506.5 487.5,506.5C 487.5,499.833 487.5,493.167 487.5,486.5 Z"/></g>
<g><path style="opacity:1" fill="#d5d5d5" d="M 693.5,532.5 C 625.167,532.5 556.833,532.5 488.5,532.5C 488.5,606.167 488.5,679.833 488.5,753.5C 487.501,679.669 487.167,605.669 487.5,531.5C 556.335,531.167 625.002,531.501 693.5,532.5 Z"/></g>
<g><path style="opacity:1" fill="#fefefe" d="M 693.5,532.5 C 693.667,606.167 693.5,679.834 693,753.5C 690.287,762.214 684.454,767.381 675.5,769C 618.833,769.667 562.167,769.667 505.5,769C 496.469,767.467 490.802,762.3 488.5,753.5C 488.5,679.833 488.5,606.167 488.5,532.5C 556.833,532.5 625.167,532.5 693.5,532.5 Z"/></g>
<g><path style="opacity:1" fill="#050505" d="M 509.5,543.5 C 522.506,542.995 527.673,548.995 525,561.5C 523.041,563.777 521.541,566.277 520.5,569C 521.473,572.645 523.306,575.812 526,578.5C 526.894,591.45 521.061,596.617 508.5,594C 497.09,585.105 493.257,573.605 497,559.5C 499.597,552.759 503.764,547.426 509.5,543.5 Z"/></g>
<g><path style="opacity:1" fill="#b4b4b4" d="M 620.5,814.5 C 619.509,808.021 619.176,801.354 619.5,794.5C 600.167,794.5 580.833,794.5 561.5,794.5C 561.824,801.354 561.491,808.021 560.5,814.5C 560.5,807.5 560.5,800.5 560.5,793.5C 580.5,793.5 600.5,793.5 620.5,793.5C 620.5,800.5 620.5,807.5 620.5,814.5 Z"/></g>
<g><path style="opacity:1" fill="#dfdfdf" d="M 531.5,793.5 C 533.167,793.5 534.833,793.5 536.5,793.5C 536.5,795.833 536.5,798.167 536.5,800.5C 534.833,800.5 533.167,800.5 531.5,800.5C 531.5,798.167 531.5,795.833 531.5,793.5 Z"/></g>
<g><path style="opacity:1" fill="#f6f6f6" d="M 645.5,793.5 C 646.833,793.5 648.167,793.5 649.5,793.5C 649.5,795.833 649.5,798.167 649.5,800.5C 648.167,800.5 646.833,800.5 645.5,800.5C 645.5,798.167 645.5,795.833 645.5,793.5 Z"/></g>
</svg>
