<?xml version="1.0" encoding="UTF-8"?>
<!DOCTYPE svg PUBLIC "-//W3C//DTD SVG 1.1//EN" "http://www.w3.org/Graphics/SVG/1.1/DTD/svg11.dtd">
<svg xmlns="http://www.w3.org/2000/svg" version="1.1" width="1181px" height="1181px" style="shape-rendering:geometricPrecision; text-rendering:geometricPrecision; image-rendering:optimizeQuality; fill-rule:evenodd; clip-rule:evenodd" xmlns:xlink="http://www.w3.org/1999/xlink">
<g><path style="opacity:1" fill="#fefefe" d="M -0.5,-0.5 C 393.167,-0.5 786.833,-0.5 1180.5,-0.5C 1180.5,393.167 1180.5,786.833 1180.5,1180.5C 786.833,1180.5 393.167,1180.5 -0.5,1180.5C -0.5,786.833 -0.5,393.167 -0.5,-0.5 Z"/></g>
<g><path style="opacity:1" fill="#010101" d="M 566.5,354.5 C 656.95,349.153 729.117,382.486 783,454.5C 831.695,529.5 838.361,608.167 803,690.5C 764.289,766.174 702.789,810.674 618.5,824C 533.937,831.781 463.771,803.948 408,740.5C 356.593,674.407 341.927,600.74 364,519.5C 390.5,442.333 442.333,390.5 519.5,364C 535.015,359.365 550.682,356.198 566.5,354.5 Z"/></g>
<g><path style="opacity:1" fill="#fdfdfd" d="M 567.5,385.5 C 655.201,380.762 722.035,415.428 768,489.5C 805.797,562.969 802.797,634.636 759,704.5C 753.068,712.935 746.568,720.935 739.5,728.5C 690.767,657.407 624.1,631.574 539.5,651C 496.927,664.754 463.927,690.588 440.5,728.5C 410.94,697.373 393.106,660.373 387,617.5C 379.111,536.136 407.611,470.969 472.5,422C 501.384,402.43 533.051,390.263 567.5,385.5 Z"/></g>
<g><path style="opacity:1" fill="#000000" d="M 576.5,423.5 C 624.201,420.756 658.367,440.756 679,483.5C 693.279,525.12 684.779,561.287 653.5,592C 622.604,616.51 588.604,621.843 551.5,608C 510.487,587.154 491.32,553.654 494,507.5C 503.235,461.432 530.735,433.432 576.5,423.5 Z"/></g>
</svg>
