<?xml version="1.0" standalone="no"?>
<!DOCTYPE svg PUBLIC "-//W3C//DTD SVG 20010904//EN"
 "http://www.w3.org/TR/2001/REC-SVG-20010904/DTD/svg10.dtd">
<svg version="1.0" xmlns="http://www.w3.org/2000/svg"
 width="1181.000000pt" height="1181.000000pt" viewBox="0 0 1181.000000 1181.000000"
 preserveAspectRatio="xMidYMid meet">

<g transform="translate(0.000000,1181.000000) scale(0.100000,-0.100000)"
fill="#000000" stroke="none">
<path d="M5740 8260 c-1001 -58 -1878 -790 -2125 -1775 -51 -204 -65 -325 -65
-572 0 -409 73 -722 248 -1068 403 -795 1214 -1295 2102 -1295 1025 0 1936
667 2250 1646 78 245 105 424 104 704 0 396 -70 697 -239 1045 -237 486 -618
861 -1118 1100 -346 165 -740 239 -1157 215z m422 -325 c617 -81 1169 -443
1490 -975 303 -502 375 -1134 192 -1688 -73 -221 -229 -501 -374 -673 -35 -41
-65 -76 -68 -79 -5 -6 -20 13 -102 130 -379 543 -1085 818 -1748 680 -443 -92
-854 -369 -1088 -734 -27 -41 -52 -75 -56 -76 -14 0 -141 156 -206 255 -161
242 -269 514 -318 800 -25 143 -30 466 -10 605 69 471 280 883 616 1203 322
307 744 506 1179 557 115 13 375 11 493 -5z"/>
<path d="M5775 7563 c-131 -18 -286 -77 -400 -152 -437 -288 -564 -869 -287
-1311 92 -146 233 -276 377 -348 163 -81 291 -107 488 -100 118 5 144 9 241
42 121 40 188 75 287 147 191 140 330 371 369 611 19 120 8 312 -24 421 -89
301 -323 546 -613 646 -124 42 -314 61 -438 44z"/>
</g>
</svg>
