<?xml version="1.0" standalone="no"?>
<!DOCTYPE svg PUBLIC "-//W3C//DTD SVG 20010904//EN"
 "http://www.w3.org/TR/2001/REC-SVG-20010904/DTD/svg10.dtd">
<svg version="1.0" xmlns="http://www.w3.org/2000/svg"
 width="1181.000000pt" height="1181.000000pt" viewBox="0 0 1181.000000 1181.000000"
 preserveAspectRatio="xMidYMid meet">

<g transform="translate(0.000000,1181.000000) scale(0.100000,-0.100000)"
fill="#000000" stroke="none">
<path d="M6555 7286 c-126 -51 -273 -111 -325 -133 -136 -58 -689 -298 -790
-343 -243 -107 -358 -157 -490 -215 -80 -34 -255 -111 -390 -170 -135 -59
-294 -129 -355 -155 -183 -78 -232 -107 -260 -148 -59 -90 -74 -213 -40 -327
78 -260 532 -1389 704 -1750 107 -223 126 -258 185 -327 94 -110 155 -121 291
-54 62 30 271 118 655 276 1358 558 1914 795 2075 885 51 28 66 43 88 87 35
70 51 149 44 219 -7 66 -74 244 -215 571 l-21 47 -218 -103 c-421 -199 -794
-336 -911 -336 -22 0 -68 9 -101 19 -253 79 -392 361 -281 570 59 110 187 199
535 371 216 107 581 270 605 270 5 0 11 4 15 9 3 5 -63 164 -145 353 -137 310
-155 347 -195 385 -59 54 -138 93 -189 93 -28 -1 -115 -31 -271 -94z"/>
</g>
</svg>
